<svg width="560" height="348" viewBox="0 0 560 348" fill="none" xmlns="http://www.w3.org/2000/svg">
<path d="M545.09 296.762H55.0898V296.894H545.09V296.762Z" fill="#EBEBEB"/>
<path d="M495.992 305.339H463.534V305.471H495.992V305.339Z" fill="#EBEBEB"/>
<path d="M379.685 306.79H371.169V306.922H379.685V306.79Z" fill="#EBEBEB"/>
<path d="M462.554 300.392H443.748V300.524H462.554V300.392Z" fill="#EBEBEB"/>
<path d="M148.827 301.288H106.501V301.42H148.827V301.288Z" fill="#EBEBEB"/>
<path d="M163.762 301.288H157.559V301.42H163.762V301.288Z" fill="#EBEBEB"/>
<path d="M275.737 303.538H183.931V303.67H275.737V303.538Z" fill="#EBEBEB"/>
<path d="M287.349 272.984H98.1212C96.6388 272.983 95.218 272.662 94.1707 272.091C93.1234 271.52 92.5352 270.747 92.5352 269.94V125.236C92.5481 124.434 93.142 123.667 94.1879 123.102C95.2338 122.537 96.6472 122.219 98.1212 122.218H287.349C288.833 122.218 290.257 122.539 291.306 123.11C292.356 123.681 292.945 124.455 292.945 125.262V269.94C292.945 270.748 292.356 271.522 291.306 272.093C290.257 272.664 288.833 272.984 287.349 272.984V272.984ZM98.1212 122.325C96.7037 122.326 95.3453 122.633 94.3439 123.179C93.3426 123.725 92.7802 124.464 92.7802 125.236V269.94C92.7802 270.711 93.3426 271.451 94.3439 271.997C95.3453 272.542 96.7037 272.85 98.1212 272.851H287.349C288.768 272.85 290.127 272.543 291.13 271.997C292.133 271.451 292.698 270.712 292.7 269.94V125.236C292.698 124.464 292.133 123.724 291.13 123.179C290.127 122.633 288.768 122.326 287.349 122.325H98.1212Z" fill="#EBEBEB"/>
<path d="M499.334 272.984H310.096C308.612 272.983 307.191 272.662 306.142 272.091C305.093 271.521 304.503 270.747 304.5 269.94V125.236C304.515 124.433 305.112 123.667 306.159 123.102C307.206 122.537 308.621 122.219 310.096 122.218H499.334C500.806 122.221 502.217 122.539 503.261 123.104C504.305 123.669 504.897 124.435 504.91 125.236V269.94C504.91 270.746 504.323 271.519 503.278 272.089C502.233 272.66 500.814 272.982 499.334 272.984V272.984ZM310.096 122.325C308.677 122.326 307.318 122.633 306.315 123.179C305.312 123.724 304.748 124.464 304.745 125.236V269.94C304.748 270.712 305.312 271.451 306.315 271.997C307.318 272.543 308.677 272.85 310.096 272.851H499.334C500.752 272.85 502.112 272.543 503.115 271.997C504.117 271.451 504.682 270.712 504.685 269.94V125.236C504.682 124.464 504.117 123.724 503.115 123.179C502.112 122.633 500.752 122.326 499.334 122.325H310.096Z" fill="#EBEBEB"/>
<path d="M435.477 296.431H475.176L467.16 218.345H443.503L435.477 296.431Z" fill="#F0F0F0"/>
<path d="M468.816 216.452H441.837V220.483H468.816V216.452Z" fill="#EBEBEB"/>
<path d="M387.339 296.431H427.039L419.022 218.345H395.365L387.339 296.431Z" fill="#F0F0F0"/>
<path d="M420.679 216.452H393.699V220.483H420.679V216.452Z" fill="#EBEBEB"/>
<path d="M440.151 284.148H396.992V296.431H440.151V284.148Z" fill="#E6E6E6"/>
<path d="M393.033 284.148H349.874V296.431H393.033V284.148Z" fill="#E0E0E0"/>
<path d="M488.671 284.148H445.512V296.431H488.671V284.148Z" fill="#E6E6E6"/>
<path d="M277.981 276.61H202.207V296.436H277.981V276.61Z" fill="#E6E6E6"/>
<path d="M191.427 276.204H178.873C178.441 276.208 178.014 276.258 177.617 276.351C177.22 276.444 176.86 276.579 176.559 276.748C176.258 276.917 176.021 277.116 175.861 277.335C175.702 277.554 175.623 277.787 175.629 278.022V291.884C175.624 292.285 175.863 292.676 176.31 292.995C176.757 293.315 177.386 293.544 178.099 293.648V296.415H180.176V293.723H184.096V296.431H186.174V293.723H190.094V296.431H192.172V293.664C192.883 293.56 193.511 293.33 193.957 293.011C194.402 292.691 194.639 292.3 194.631 291.9V278.038C194.653 277.564 194.327 277.105 193.726 276.761C193.125 276.417 192.299 276.217 191.427 276.204V276.204Z" fill="#E6E6E6"/>
<path d="M168.26 276.204H155.706C155.274 276.208 154.847 276.258 154.45 276.351C154.053 276.444 153.693 276.579 153.392 276.748C153.091 276.917 152.854 277.116 152.694 277.335C152.535 277.554 152.456 277.787 152.462 278.022V291.884C152.453 292.285 152.691 292.677 153.139 292.997C153.586 293.317 154.217 293.546 154.932 293.648V296.415H157.009V293.723H160.929V296.431H162.997V293.723H166.917V296.431H168.985V293.664C169.698 293.56 170.327 293.331 170.774 293.011C171.221 292.692 171.46 292.301 171.455 291.9V278.038C171.476 277.565 171.152 277.106 170.553 276.763C169.954 276.419 169.13 276.218 168.26 276.204V276.204Z" fill="#E6E6E6"/>
<path d="M145.083 276.204H132.51C132.077 276.208 131.65 276.258 131.253 276.351C130.856 276.444 130.497 276.579 130.196 276.748C129.894 276.917 129.657 277.116 129.498 277.335C129.338 277.554 129.26 277.787 129.266 278.022V291.884C129.26 292.285 129.5 292.676 129.947 292.995C130.394 293.315 131.023 293.544 131.736 293.648V296.415H133.803V293.723H137.723V296.431H139.791V293.723H143.711V296.431H145.779V293.664C146.493 293.562 147.124 293.333 147.572 293.013C148.019 292.693 148.258 292.301 148.249 291.9V278.038C148.27 277.568 147.95 277.111 147.357 276.768C146.765 276.425 145.948 276.223 145.083 276.204Z" fill="#E6E6E6"/>
<path d="M411.81 198.929C411.624 196.898 419.523 196.055 421.022 197.745C422.522 199.435 419.523 200.699 419.523 200.699C419.523 200.699 424.031 201.712 420.277 203.258C416.524 204.804 415.005 203.258 415.005 203.258C415.005 203.258 410.683 205.444 409.556 204.596C408.429 203.748 410.683 203.098 410.683 203.098C410.683 203.098 407.047 203.226 407.547 201.221C408.047 199.217 411.81 198.929 411.81 198.929Z" fill="#E0E0E0"/>
<path d="M400.353 208.381C400.255 207.368 404.205 206.947 404.959 207.789C405.15 208.046 405.18 208.33 405.043 208.597C404.907 208.864 404.612 209.099 404.205 209.266C404.205 209.266 406.469 209.772 404.587 210.545C402.705 211.318 401.951 210.545 401.951 210.545C401.951 210.545 399.795 211.612 399.226 211.217C398.658 210.823 399.795 210.465 399.795 210.465C399.568 210.481 399.337 210.467 399.122 210.424C398.908 210.382 398.715 210.311 398.561 210.219C398.407 210.127 398.296 210.016 398.238 209.895C398.18 209.775 398.176 209.649 398.227 209.527C398.314 209.239 398.566 208.972 398.948 208.766C399.33 208.56 399.822 208.426 400.353 208.381V208.381Z" fill="#E0E0E0"/>
<path d="M398.825 187.259C398.551 184.343 409.889 183.132 412.055 185.558C414.221 187.984 409.889 189.796 409.889 189.796C409.889 189.796 416.377 191.246 410.977 193.475C405.577 195.703 403.412 193.475 403.412 193.475C403.412 193.475 397.208 196.604 395.572 195.394C393.935 194.184 397.198 193.262 397.198 193.262C397.198 193.262 391.975 193.448 392.69 190.596C393.406 187.744 398.825 187.259 398.825 187.259Z" fill="#E0E0E0"/>
<path d="M464.201 200.517C464.015 198.486 471.913 197.644 473.423 199.329C474.932 201.013 471.913 202.282 471.913 202.282C471.913 202.282 476.431 203.295 472.668 204.846C468.905 206.398 467.396 204.846 467.396 204.846C467.396 204.846 463.074 207.027 461.947 206.185C460.82 205.342 463.074 204.686 463.074 204.686C463.074 204.686 459.438 204.814 459.938 202.81C460.438 200.805 464.201 200.517 464.201 200.517Z" fill="#E0E0E0"/>
<path d="M452.764 209.97C452.675 208.957 456.625 208.53 457.379 209.378C457.569 209.635 457.597 209.919 457.461 210.186C457.324 210.452 457.031 210.687 456.625 210.855C456.625 210.855 458.879 211.388 456.997 212.134C455.116 212.88 454.361 212.134 454.361 212.134C454.361 212.134 452.205 213.227 451.637 212.806C451.068 212.385 452.205 212.054 452.205 212.054C451.978 212.07 451.747 212.056 451.532 212.013C451.318 211.97 451.125 211.9 450.971 211.808C450.817 211.715 450.706 211.604 450.648 211.484C450.59 211.364 450.586 211.237 450.637 211.116C450.724 210.827 450.976 210.561 451.358 210.355C451.74 210.149 452.232 210.014 452.764 209.97V209.97Z" fill="#E0E0E0"/>
<path d="M388.192 269.487V256.65H382.184V212.017H373.502V206.254L354.96 201.408V195.602H352.392V212.017H348.796V256.65H345.209V233.182H335.448V221.085H332.724V256.65H325.315V243.114H320.435V239.659H309.135V227.856H302.942V219.502H295.337V207.336H292.622V219.502H285.017V227.856H278.833V239.659H267.534V243.114H262.654V256.65H256.862V239.659H245.563V203.087H241.966V199.057H217.828V203.087H212.693V229.583H192.143V232.174H184.44V234.189H192.143V244.558H179.638V244.622H159.812V296.431H392.298V269.487H388.192Z" fill="#E6E6E6"/>
<path d="M167.182 247.181H164.271V248.813H167.182V247.181Z" fill="#F0F0F0"/>
<path d="M167.182 249.916H164.271V251.548H167.182V249.916Z" fill="#F0F0F0"/>
<path d="M219.22 204.51H216.31V206.142H219.22V204.51Z" fill="#F0F0F0"/>
<path d="M219.22 207.245H216.31V208.877H219.22V207.245Z" fill="#F0F0F0"/>
<path d="M219.22 209.98H216.31V211.612H219.22V209.98Z" fill="#F0F0F0"/>
<path d="M219.22 212.721H216.31V214.352H219.22V212.721Z" fill="#F0F0F0"/>
<path d="M219.22 215.455H216.31V217.087H219.22V215.455Z" fill="#F0F0F0"/>
<path d="M219.22 218.19H216.31V219.822H219.22V218.19Z" fill="#F0F0F0"/>
<path d="M219.22 220.925H216.31V222.557H219.22V220.925Z" fill="#F0F0F0"/>
<path d="M219.22 223.66H216.31V225.291H219.22V223.66Z" fill="#F0F0F0"/>
<path d="M219.22 231.87H216.31V233.502H219.22V231.87Z" fill="#F0F0F0"/>
<path d="M219.22 234.605H216.31V236.236H219.22V234.605Z" fill="#F0F0F0"/>
<path d="M223.845 204.51H220.935V206.142H223.845V204.51Z" fill="#F0F0F0"/>
<path d="M223.845 207.245H220.935V208.877H223.845V207.245Z" fill="#F0F0F0"/>
<path d="M223.845 209.98H220.935V211.612H223.845V209.98Z" fill="#F0F0F0"/>
<path d="M223.845 212.721H220.935V214.352H223.845V212.721Z" fill="#F0F0F0"/>
<path d="M223.845 215.455H220.935V217.087H223.845V215.455Z" fill="#F0F0F0"/>
<path d="M223.845 218.19H220.935V219.822H223.845V218.19Z" fill="#F0F0F0"/>
<path d="M223.845 220.925H220.935V222.557H223.845V220.925Z" fill="#F0F0F0"/>
<path d="M223.845 223.66H220.935V225.291H223.845V223.66Z" fill="#F0F0F0"/>
<path d="M223.845 234.605H220.935V236.236H223.845V234.605Z" fill="#F0F0F0"/>
<path d="M228.471 204.51H225.561V206.142H228.471V204.51Z" fill="#F0F0F0"/>
<path d="M228.471 207.245H225.561V208.877H228.471V207.245Z" fill="#F0F0F0"/>
<path d="M228.471 209.98H225.561V211.612H228.471V209.98Z" fill="#F0F0F0"/>
<path d="M228.471 212.721H225.561V214.352H228.471V212.721Z" fill="#F0F0F0"/>
<path d="M228.471 215.455H225.561V217.087H228.471V215.455Z" fill="#F0F0F0"/>
<path d="M228.471 218.19H225.561V219.822H228.471V218.19Z" fill="#F0F0F0"/>
<path d="M228.471 220.925H225.561V222.557H228.471V220.925Z" fill="#F0F0F0"/>
<path d="M228.471 223.66H225.561V225.291H228.471V223.66Z" fill="#F0F0F0"/>
<path d="M233.097 204.51H230.187V206.142H233.097V204.51Z" fill="#F0F0F0"/>
<path d="M233.097 207.245H230.187V208.877H233.097V207.245Z" fill="#F0F0F0"/>
<path d="M233.097 209.98H230.187V211.612H233.097V209.98Z" fill="#F0F0F0"/>
<path d="M233.097 212.721H230.187V214.352H233.097V212.721Z" fill="#F0F0F0"/>
<path d="M233.097 215.455H230.187V217.087H233.097V215.455Z" fill="#F0F0F0"/>
<path d="M233.097 218.19H230.187V219.822H233.097V218.19Z" fill="#F0F0F0"/>
<path d="M233.097 223.66H230.187V225.291H233.097V223.66Z" fill="#F0F0F0"/>
<path d="M233.097 226.395H230.187V228.026H233.097V226.395Z" fill="#F0F0F0"/>
<path d="M233.097 234.605H230.187V236.236H233.097V234.605Z" fill="#F0F0F0"/>
<path d="M233.097 237.34H230.187V238.971H233.097V237.34Z" fill="#F0F0F0"/>
<path d="M233.097 240.075H230.187V241.706H233.097V240.075Z" fill="#F0F0F0"/>
<path d="M233.097 242.81H230.187V244.441H233.097V242.81Z" fill="#F0F0F0"/>
<path d="M233.097 245.545H230.187V247.176H233.097V245.545Z" fill="#F0F0F0"/>
<path d="M233.097 248.285H230.187V249.916H233.097V248.285Z" fill="#F0F0F0"/>
<path d="M233.097 251.02H230.187V252.651H233.097V251.02Z" fill="#F0F0F0"/>
<path d="M237.712 204.51H234.802V206.142H237.712V204.51Z" fill="#F0F0F0"/>
<path d="M237.712 207.245H234.802V208.877H237.712V207.245Z" fill="#F0F0F0"/>
<path d="M237.712 209.98H234.802V211.612H237.712V209.98Z" fill="#F0F0F0"/>
<path d="M237.712 212.721H234.802V214.352H237.712V212.721Z" fill="#F0F0F0"/>
<path d="M237.712 215.455H234.802V217.087H237.712V215.455Z" fill="#F0F0F0"/>
<path d="M237.712 218.19H234.802V219.822H237.712V218.19Z" fill="#F0F0F0"/>
<path d="M237.712 226.395H234.802V228.026H237.712V226.395Z" fill="#F0F0F0"/>
<path d="M237.712 229.135H234.802V230.767H237.712V229.135Z" fill="#F0F0F0"/>
<path d="M237.712 231.87H234.802V233.502H237.712V231.87Z" fill="#F0F0F0"/>
<path d="M237.712 234.605H234.802V236.236H237.712V234.605Z" fill="#F0F0F0"/>
<path d="M237.712 237.34H234.802V238.971H237.712V237.34Z" fill="#F0F0F0"/>
<path d="M237.712 240.075H234.802V241.706H237.712V240.075Z" fill="#F0F0F0"/>
<path d="M237.712 242.81H234.802V244.441H237.712V242.81Z" fill="#F0F0F0"/>
<path d="M237.712 245.545H234.802V247.176H237.712V245.545Z" fill="#F0F0F0"/>
<path d="M237.712 248.285H234.802V249.916H237.712V248.285Z" fill="#F0F0F0"/>
<path d="M237.712 251.02H234.802V252.651H237.712V251.02Z" fill="#F0F0F0"/>
<path d="M237.712 253.755H234.802V255.386H237.712V253.755Z" fill="#F0F0F0"/>
<path d="M237.712 259.225H234.802V260.856H237.712V259.225Z" fill="#F0F0F0"/>
<path d="M242.338 204.51H239.428V206.142H242.338V204.51Z" fill="#F0F0F0"/>
<path d="M242.338 207.245H239.428V208.877H242.338V207.245Z" fill="#F0F0F0"/>
<path d="M242.338 209.98H239.428V211.612H242.338V209.98Z" fill="#F0F0F0"/>
<path d="M242.338 212.721H239.428V214.352H242.338V212.721Z" fill="#F0F0F0"/>
<path d="M242.338 215.455H239.428V217.087H242.338V215.455Z" fill="#F0F0F0"/>
<path d="M242.338 218.19H239.428V219.822H242.338V218.19Z" fill="#F0F0F0"/>
<path d="M242.338 226.395H239.428V228.026H242.338V226.395Z" fill="#F0F0F0"/>
<path d="M242.338 229.135H239.428V230.767H242.338V229.135Z" fill="#F0F0F0"/>
<path d="M242.338 231.87H239.428V233.502H242.338V231.87Z" fill="#F0F0F0"/>
<path d="M242.338 234.605H239.428V236.236H242.338V234.605Z" fill="#F0F0F0"/>
<path d="M242.338 242.81H239.428V244.441H242.338V242.81Z" fill="#F0F0F0"/>
<path d="M242.338 245.545H239.428V247.176H242.338V245.545Z" fill="#F0F0F0"/>
<path d="M242.338 248.285H239.428V249.916H242.338V248.285Z" fill="#F0F0F0"/>
<path d="M242.338 251.02H239.428V252.651H242.338V251.02Z" fill="#F0F0F0"/>
<path d="M242.338 253.755H239.428V255.386H242.338V253.755Z" fill="#F0F0F0"/>
<path d="M242.338 259.225H239.428V260.856H242.338V259.225Z" fill="#F0F0F0"/>
<path d="M242.338 261.96H239.428V263.591H242.338V261.96Z" fill="#F0F0F0"/>
<path d="M284.283 229.951H281.372V231.582H284.283V229.951Z" fill="#F0F0F0"/>
<path d="M284.283 232.686H281.372V234.317H284.283V232.686Z" fill="#F0F0F0"/>
<path d="M284.283 235.421H281.372V237.052H284.283V235.421Z" fill="#F0F0F0"/>
<path d="M284.283 238.156H281.372V239.787H284.283V238.156Z" fill="#F0F0F0"/>
<path d="M284.283 240.891H281.372V242.522H284.283V240.891Z" fill="#F0F0F0"/>
<path d="M284.283 243.625H281.372V245.257H284.283V243.625Z" fill="#F0F0F0"/>
<path d="M284.283 246.366H281.372V247.997H284.283V246.366Z" fill="#F0F0F0"/>
<path d="M284.283 254.57H281.372V256.202H284.283V254.57Z" fill="#F0F0F0"/>
<path d="M284.283 257.305H281.372V258.937H284.283V257.305Z" fill="#F0F0F0"/>
<path d="M284.283 260.04H281.372V261.672H284.283V260.04Z" fill="#F0F0F0"/>
<path d="M288.908 229.951H285.997V231.582H288.908V229.951Z" fill="#F0F0F0"/>
<path d="M288.908 232.686H285.997V234.317H288.908V232.686Z" fill="#F0F0F0"/>
<path d="M288.908 235.421H285.997V237.052H288.908V235.421Z" fill="#F0F0F0"/>
<path d="M288.908 238.156H285.997V239.787H288.908V238.156Z" fill="#F0F0F0"/>
<path d="M288.908 240.891H285.997V242.522H288.908V240.891Z" fill="#F0F0F0"/>
<path d="M288.908 243.625H285.997V245.257H288.908V243.625Z" fill="#F0F0F0"/>
<path d="M288.908 246.366H285.997V247.997H288.908V246.366Z" fill="#F0F0F0"/>
<path d="M293.524 229.951H290.613V231.582H293.524V229.951Z" fill="#F0F0F0"/>
<path d="M293.524 232.686H290.613V234.317H293.524V232.686Z" fill="#F0F0F0"/>
<path d="M293.524 235.421H290.613V237.052H293.524V235.421Z" fill="#F0F0F0"/>
<path d="M293.524 238.156H290.613V239.787H293.524V238.156Z" fill="#F0F0F0"/>
<path d="M293.524 240.891H290.613V242.522H293.524V240.891Z" fill="#F0F0F0"/>
<path d="M293.524 243.625H290.613V245.257H293.524V243.625Z" fill="#F0F0F0"/>
<path d="M293.524 246.366H290.613V247.997H293.524V246.366Z" fill="#F0F0F0"/>
<path d="M298.15 229.951H295.239V231.582H298.15V229.951Z" fill="#F0F0F0"/>
<path d="M298.15 232.686H295.239V234.317H298.15V232.686Z" fill="#F0F0F0"/>
<path d="M298.15 235.421H295.239V237.052H298.15V235.421Z" fill="#F0F0F0"/>
<path d="M298.15 238.156H295.239V239.787H298.15V238.156Z" fill="#F0F0F0"/>
<path d="M298.15 240.891H295.239V242.522H298.15V240.891Z" fill="#F0F0F0"/>
<path d="M298.15 243.625H295.239V245.257H298.15V243.625Z" fill="#F0F0F0"/>
<path d="M298.15 246.366H295.239V247.997H298.15V246.366Z" fill="#F0F0F0"/>
<path d="M298.15 249.101H295.239V250.732H298.15V249.101Z" fill="#F0F0F0"/>
<path d="M298.15 251.836H295.239V253.467H298.15V251.836Z" fill="#F0F0F0"/>
<path d="M298.15 254.57H295.239V256.202H298.15V254.57Z" fill="#F0F0F0"/>
<path d="M298.15 257.305H295.239V258.937H298.15V257.305Z" fill="#F0F0F0"/>
<path d="M302.775 229.951H299.864V231.582H302.775V229.951Z" fill="#F0F0F0"/>
<path d="M302.775 232.686H299.864V234.317H302.775V232.686Z" fill="#F0F0F0"/>
<path d="M302.775 235.421H299.864V237.052H302.775V235.421Z" fill="#F0F0F0"/>
<path d="M302.775 238.156H299.864V239.787H302.775V238.156Z" fill="#F0F0F0"/>
<path d="M302.775 240.891H299.864V242.522H302.775V240.891Z" fill="#F0F0F0"/>
<path d="M302.775 243.625H299.864V245.257H302.775V243.625Z" fill="#F0F0F0"/>
<path d="M302.775 246.366H299.864V247.997H302.775V246.366Z" fill="#F0F0F0"/>
<path d="M302.775 249.101H299.864V250.732H302.775V249.101Z" fill="#F0F0F0"/>
<path d="M302.775 251.836H299.864V253.467H302.775V251.836Z" fill="#F0F0F0"/>
<path d="M302.775 254.57H299.864V256.202H302.775V254.57Z" fill="#F0F0F0"/>
<path d="M302.775 257.305H299.864V258.937H302.775V257.305Z" fill="#F0F0F0"/>
<path d="M302.775 260.04H299.864V261.672H302.775V260.04Z" fill="#F0F0F0"/>
<path d="M302.775 268.25H299.864V269.882H302.775V268.25Z" fill="#F0F0F0"/>
<path d="M302.775 270.985H299.864V272.617H302.775V270.985Z" fill="#F0F0F0"/>
<path d="M307.401 229.951H304.49V231.582H307.401V229.951Z" fill="#F0F0F0"/>
<path d="M307.401 232.686H304.49V234.317H307.401V232.686Z" fill="#F0F0F0"/>
<path d="M307.401 235.421H304.49V237.052H307.401V235.421Z" fill="#F0F0F0"/>
<path d="M307.401 243.625H304.49V245.257H307.401V243.625Z" fill="#F0F0F0"/>
<path d="M307.401 246.366H304.49V247.997H307.401V246.366Z" fill="#F0F0F0"/>
<path d="M307.401 249.101H304.49V250.732H307.401V249.101Z" fill="#F0F0F0"/>
<path d="M307.401 251.836H304.49V253.467H307.401V251.836Z" fill="#F0F0F0"/>
<path d="M307.401 254.57H304.49V256.202H307.401V254.57Z" fill="#F0F0F0"/>
<path d="M307.401 257.305H304.49V258.937H307.401V257.305Z" fill="#F0F0F0"/>
<path d="M307.401 260.04H304.49V261.672H307.401V260.04Z" fill="#F0F0F0"/>
<path d="M307.401 268.25H304.49V269.882H307.401V268.25Z" fill="#F0F0F0"/>
<path d="M307.401 270.985H304.49V272.617H307.401V270.985Z" fill="#F0F0F0"/>
<path d="M307.401 273.72H304.49V275.351H307.401V273.72Z" fill="#F0F0F0"/>
<path d="M355.842 213.536H352.932V215.168H355.842V213.536Z" fill="#F0F0F0"/>
<path d="M355.842 216.271H352.932V217.902H355.842V216.271Z" fill="#F0F0F0"/>
<path d="M355.842 219.006H352.932V220.637H355.842V219.006Z" fill="#F0F0F0"/>
<path d="M355.842 221.741H352.932V223.372H355.842V221.741Z" fill="#F0F0F0"/>
<path d="M355.842 224.476H352.932V226.107H355.842V224.476Z" fill="#F0F0F0"/>
<path d="M355.842 227.211H352.932V228.842H355.842V227.211Z" fill="#F0F0F0"/>
<path d="M355.842 229.951H352.932V231.582H355.842V229.951Z" fill="#F0F0F0"/>
<path d="M355.842 232.686H352.932V234.317H355.842V232.686Z" fill="#F0F0F0"/>
<path d="M355.842 235.421H352.932V237.052H355.842V235.421Z" fill="#F0F0F0"/>
<path d="M355.842 238.156H352.932V239.787H355.842V238.156Z" fill="#F0F0F0"/>
<path d="M355.842 240.891H352.932V242.522H355.842V240.891Z" fill="#F0F0F0"/>
<path d="M355.842 243.625H352.932V245.257H355.842V243.625Z" fill="#F0F0F0"/>
<path d="M355.842 246.366H352.932V247.997H355.842V246.366Z" fill="#F0F0F0"/>
<path d="M355.842 249.101H352.932V250.732H355.842V249.101Z" fill="#F0F0F0"/>
<path d="M355.842 251.836H352.932V253.467H355.842V251.836Z" fill="#F0F0F0"/>
<path d="M355.842 254.57H352.932V256.202H355.842V254.57Z" fill="#F0F0F0"/>
<path d="M355.842 257.305H352.932V258.937H355.842V257.305Z" fill="#F0F0F0"/>
<path d="M355.842 260.04H352.932V261.672H355.842V260.04Z" fill="#F0F0F0"/>
<path d="M355.842 262.781H352.932V264.412H355.842V262.781Z" fill="#F0F0F0"/>
<path d="M355.842 265.515H352.932V267.147H355.842V265.515Z" fill="#F0F0F0"/>
<path d="M355.842 268.25H352.932V269.882H355.842V268.25Z" fill="#F0F0F0"/>
<path d="M355.842 270.985H352.932V272.617H355.842V270.985Z" fill="#F0F0F0"/>
<path d="M355.842 273.72H352.932V275.351H355.842V273.72Z" fill="#F0F0F0"/>
<path d="M360.467 213.536H357.557V215.168H360.467V213.536Z" fill="#F0F0F0"/>
<path d="M360.467 216.271H357.557V217.902H360.467V216.271Z" fill="#F0F0F0"/>
<path d="M360.467 219.006H357.557V220.637H360.467V219.006Z" fill="#F0F0F0"/>
<path d="M360.467 221.741H357.557V223.372H360.467V221.741Z" fill="#F0F0F0"/>
<path d="M360.467 224.476H357.557V226.107H360.467V224.476Z" fill="#F0F0F0"/>
<path d="M360.467 227.211H357.557V228.842H360.467V227.211Z" fill="#F0F0F0"/>
<path d="M360.467 229.951H357.557V231.582H360.467V229.951Z" fill="#F0F0F0"/>
<path d="M360.467 232.686H357.557V234.317H360.467V232.686Z" fill="#F0F0F0"/>
<path d="M360.467 235.421H357.557V237.052H360.467V235.421Z" fill="#F0F0F0"/>
<path d="M360.467 238.156H357.557V239.787H360.467V238.156Z" fill="#F0F0F0"/>
<path d="M360.467 240.891H357.557V242.522H360.467V240.891Z" fill="#F0F0F0"/>
<path d="M360.467 243.625H357.557V245.257H360.467V243.625Z" fill="#F0F0F0"/>
<path d="M360.467 246.366H357.557V247.997H360.467V246.366Z" fill="#F0F0F0"/>
<path d="M360.467 249.101H357.557V250.732H360.467V249.101Z" fill="#F0F0F0"/>
<path d="M360.467 251.836H357.557V253.467H360.467V251.836Z" fill="#F0F0F0"/>
<path d="M360.467 254.57H357.557V256.202H360.467V254.57Z" fill="#F0F0F0"/>
<path d="M360.467 257.305H357.557V258.937H360.467V257.305Z" fill="#F0F0F0"/>
<path d="M360.467 260.04H357.557V261.672H360.467V260.04Z" fill="#F0F0F0"/>
<path d="M360.467 262.781H357.557V264.412H360.467V262.781Z" fill="#F0F0F0"/>
<path d="M365.093 213.536H362.183V215.168H365.093V213.536Z" fill="#F0F0F0"/>
<path d="M365.093 216.271H362.183V217.902H365.093V216.271Z" fill="#F0F0F0"/>
<path d="M365.093 219.006H362.183V220.637H365.093V219.006Z" fill="#F0F0F0"/>
<path d="M365.093 221.741H362.183V223.372H365.093V221.741Z" fill="#F0F0F0"/>
<path d="M365.093 224.476H362.183V226.107H365.093V224.476Z" fill="#F0F0F0"/>
<path d="M365.093 227.211H362.183V228.842H365.093V227.211Z" fill="#F0F0F0"/>
<path d="M365.093 229.951H362.183V231.582H365.093V229.951Z" fill="#F0F0F0"/>
<path d="M365.093 232.686H362.183V234.317H365.093V232.686Z" fill="#F0F0F0"/>
<path d="M365.093 235.421H362.183V237.052H365.093V235.421Z" fill="#F0F0F0"/>
<path d="M365.093 238.156H362.183V239.787H365.093V238.156Z" fill="#F0F0F0"/>
<path d="M365.093 240.891H362.183V242.522H365.093V240.891Z" fill="#F0F0F0"/>
<path d="M365.093 243.625H362.183V245.257H365.093V243.625Z" fill="#F0F0F0"/>
<path d="M365.093 246.366H362.183V247.997H365.093V246.366Z" fill="#F0F0F0"/>
<path d="M365.093 249.101H362.183V250.732H365.093V249.101Z" fill="#F0F0F0"/>
<path d="M365.093 251.836H362.183V253.467H365.093V251.836Z" fill="#F0F0F0"/>
<path d="M365.093 254.57H362.183V256.202H365.093V254.57Z" fill="#F0F0F0"/>
<path d="M365.093 257.305H362.183V258.937H365.093V257.305Z" fill="#F0F0F0"/>
<path d="M365.093 260.04H362.183V261.672H365.093V260.04Z" fill="#F0F0F0"/>
<path d="M365.093 262.781H362.183V264.412H365.093V262.781Z" fill="#F0F0F0"/>
<path d="M369.718 213.536H366.808V215.168H369.718V213.536Z" fill="#F0F0F0"/>
<path d="M369.718 216.271H366.808V217.902H369.718V216.271Z" fill="#F0F0F0"/>
<path d="M369.718 219.006H366.808V220.637H369.718V219.006Z" fill="#F0F0F0"/>
<path d="M369.718 221.741H366.808V223.372H369.718V221.741Z" fill="#F0F0F0"/>
<path d="M369.718 224.476H366.808V226.107H369.718V224.476Z" fill="#F0F0F0"/>
<path d="M369.718 227.211H366.808V228.842H369.718V227.211Z" fill="#F0F0F0"/>
<path d="M369.718 229.951H366.808V231.582H369.718V229.951Z" fill="#F0F0F0"/>
<path d="M369.718 232.686H366.808V234.317H369.718V232.686Z" fill="#F0F0F0"/>
<path d="M369.718 235.421H366.808V237.052H369.718V235.421Z" fill="#F0F0F0"/>
<path d="M369.718 238.156H366.808V239.787H369.718V238.156Z" fill="#F0F0F0"/>
<path d="M369.718 240.891H366.808V242.522H369.718V240.891Z" fill="#F0F0F0"/>
<path d="M369.718 243.625H366.808V245.257H369.718V243.625Z" fill="#F0F0F0"/>
<path d="M369.718 246.366H366.808V247.997H369.718V246.366Z" fill="#F0F0F0"/>
<path d="M369.718 249.101H366.808V250.732H369.718V249.101Z" fill="#F0F0F0"/>
<path d="M369.718 251.836H366.808V253.467H369.718V251.836Z" fill="#F0F0F0"/>
<path d="M374.334 213.536H371.424V215.168H374.334V213.536Z" fill="#F0F0F0"/>
<path d="M374.334 216.271H371.424V217.902H374.334V216.271Z" fill="#F0F0F0"/>
<path d="M374.334 219.006H371.424V220.637H374.334V219.006Z" fill="#F0F0F0"/>
<path d="M374.334 221.741H371.424V223.372H374.334V221.741Z" fill="#F0F0F0"/>
<path d="M374.334 224.476H371.424V226.107H374.334V224.476Z" fill="#F0F0F0"/>
<path d="M374.334 227.211H371.424V228.842H374.334V227.211Z" fill="#F0F0F0"/>
<path d="M374.334 229.951H371.424V231.582H374.334V229.951Z" fill="#F0F0F0"/>
<path d="M374.334 232.686H371.424V234.317H374.334V232.686Z" fill="#F0F0F0"/>
<path d="M374.334 235.421H371.424V237.052H374.334V235.421Z" fill="#F0F0F0"/>
<path d="M374.334 238.156H371.424V239.787H374.334V238.156Z" fill="#F0F0F0"/>
<path d="M374.334 240.891H371.424V242.522H374.334V240.891Z" fill="#F0F0F0"/>
<path d="M374.334 243.625H371.424V245.257H374.334V243.625Z" fill="#F0F0F0"/>
<path d="M374.334 246.366H371.424V247.997H374.334V246.366Z" fill="#F0F0F0"/>
<path d="M378.96 213.536H376.05V215.168H378.96V213.536Z" fill="#F0F0F0"/>
<path d="M378.96 216.271H376.05V217.902H378.96V216.271Z" fill="#F0F0F0"/>
<path d="M378.96 219.006H376.05V220.637H378.96V219.006Z" fill="#F0F0F0"/>
<path d="M378.96 221.741H376.05V223.372H378.96V221.741Z" fill="#F0F0F0"/>
<path d="M378.96 224.476H376.05V226.107H378.96V224.476Z" fill="#F0F0F0"/>
<path d="M378.96 227.211H376.05V228.842H378.96V227.211Z" fill="#F0F0F0"/>
<path d="M378.96 229.951H376.05V231.582H378.96V229.951Z" fill="#F0F0F0"/>
<path d="M378.96 232.686H376.05V234.317H378.96V232.686Z" fill="#F0F0F0"/>
<path d="M378.96 235.421H376.05V237.052H378.96V235.421Z" fill="#F0F0F0"/>
<path d="M378.96 238.156H376.05V239.787H378.96V238.156Z" fill="#F0F0F0"/>
<path d="M378.96 240.891H376.05V242.522H378.96V240.891Z" fill="#F0F0F0"/>
<path d="M378.96 243.625H376.05V245.257H378.96V243.625Z" fill="#F0F0F0"/>
<path d="M199.023 231.87H196.112V233.502H199.023V231.87Z" fill="#F0F0F0"/>
<path d="M199.023 234.605H196.112V236.236H199.023V234.605Z" fill="#F0F0F0"/>
<path d="M199.023 237.34H196.112V238.971H199.023V237.34Z" fill="#F0F0F0"/>
<path d="M199.023 240.075H196.112V241.706H199.023V240.075Z" fill="#F0F0F0"/>
<path d="M199.023 242.81H196.112V244.441H199.023V242.81Z" fill="#F0F0F0"/>
<path d="M199.023 245.545H196.112V247.176H199.023V245.545Z" fill="#F0F0F0"/>
<path d="M199.023 248.285H196.112V249.916H199.023V248.285Z" fill="#F0F0F0"/>
<path d="M199.023 251.02H196.112V252.651H199.023V251.02Z" fill="#F0F0F0"/>
<path d="M199.023 253.755H196.112V255.386H199.023V253.755Z" fill="#F0F0F0"/>
<path d="M199.023 256.49H196.112V258.121H199.023V256.49Z" fill="#F0F0F0"/>
<path d="M199.023 259.225H196.112V260.856H199.023V259.225Z" fill="#F0F0F0"/>
<path d="M199.023 261.96H196.112V263.591H199.023V261.96Z" fill="#F0F0F0"/>
<path d="M199.023 264.7H196.112V266.331H199.023V264.7Z" fill="#F0F0F0"/>
<path d="M199.023 270.17H196.112V271.801H199.023V270.17Z" fill="#F0F0F0"/>
<path d="M199.023 272.904H196.112V274.536H199.023V272.904Z" fill="#F0F0F0"/>
<path d="M199.023 275.639H196.112V277.271H199.023V275.639Z" fill="#F0F0F0"/>
<path d="M199.023 278.374H196.112V280.006H199.023V278.374Z" fill="#F0F0F0"/>
<path d="M199.023 283.849H196.112V285.481H199.023V283.849Z" fill="#F0F0F0"/>
<path d="M199.023 286.584H196.112V288.216H199.023V286.584Z" fill="#F0F0F0"/>
<path d="M199.023 289.319H196.112V290.951H199.023V289.319Z" fill="#F0F0F0"/>
<path d="M203.648 231.87H200.737V233.502H203.648V231.87Z" fill="#F0F0F0"/>
<path d="M203.648 234.605H200.737V236.236H203.648V234.605Z" fill="#F0F0F0"/>
<path d="M203.648 237.34H200.737V238.971H203.648V237.34Z" fill="#F0F0F0"/>
<path d="M203.648 240.075H200.737V241.706H203.648V240.075Z" fill="#F0F0F0"/>
<path d="M203.648 242.81H200.737V244.441H203.648V242.81Z" fill="#F0F0F0"/>
<path d="M203.648 245.545H200.737V247.176H203.648V245.545Z" fill="#F0F0F0"/>
<path d="M203.648 248.285H200.737V249.916H203.648V248.285Z" fill="#F0F0F0"/>
<path d="M203.648 251.02H200.737V252.651H203.648V251.02Z" fill="#F0F0F0"/>
<path d="M203.648 253.755H200.737V255.386H203.648V253.755Z" fill="#F0F0F0"/>
<path d="M203.648 256.49H200.737V258.121H203.648V256.49Z" fill="#F0F0F0"/>
<path d="M203.648 259.225H200.737V260.856H203.648V259.225Z" fill="#F0F0F0"/>
<path d="M203.648 261.96H200.737V263.591H203.648V261.96Z" fill="#F0F0F0"/>
<path d="M203.648 264.7H200.737V266.331H203.648V264.7Z" fill="#F0F0F0"/>
<path d="M203.648 272.904H200.737V274.536H203.648V272.904Z" fill="#F0F0F0"/>
<path d="M203.648 275.639H200.737V277.271H203.648V275.639Z" fill="#F0F0F0"/>
<path d="M203.648 281.115H200.737V282.746H203.648V281.115Z" fill="#F0F0F0"/>
<path d="M203.648 283.849H200.737V285.481H203.648V283.849Z" fill="#F0F0F0"/>
<path d="M203.648 286.584H200.737V288.216H203.648V286.584Z" fill="#F0F0F0"/>
<path d="M203.648 289.319H200.737V290.951H203.648V289.319Z" fill="#F0F0F0"/>
<path d="M208.264 231.87H205.354V233.502H208.264V231.87Z" fill="#F0F0F0"/>
<path d="M208.264 234.605H205.354V236.236H208.264V234.605Z" fill="#F0F0F0"/>
<path d="M208.264 237.34H205.354V238.971H208.264V237.34Z" fill="#F0F0F0"/>
<path d="M208.264 240.075H205.354V241.706H208.264V240.075Z" fill="#F0F0F0"/>
<path d="M208.264 242.81H205.354V244.441H208.264V242.81Z" fill="#F0F0F0"/>
<path d="M208.264 245.545H205.354V247.176H208.264V245.545Z" fill="#F0F0F0"/>
<path d="M208.264 248.285H205.354V249.916H208.264V248.285Z" fill="#F0F0F0"/>
<path d="M208.264 251.02H205.354V252.651H208.264V251.02Z" fill="#F0F0F0"/>
<path d="M208.264 253.755H205.354V255.386H208.264V253.755Z" fill="#F0F0F0"/>
<path d="M208.264 256.49H205.354V258.121H208.264V256.49Z" fill="#F0F0F0"/>
<path d="M208.264 259.225H205.354V260.856H208.264V259.225Z" fill="#F0F0F0"/>
<path d="M208.264 261.96H205.354V263.591H208.264V261.96Z" fill="#F0F0F0"/>
<path d="M208.264 264.7H205.354V266.331H208.264V264.7Z" fill="#F0F0F0"/>
<path d="M208.264 267.435H205.354V269.066H208.264V267.435Z" fill="#F0F0F0"/>
<path d="M208.264 272.904H205.354V274.536H208.264V272.904Z" fill="#F0F0F0"/>
<path d="M208.264 278.374H205.354V280.006H208.264V278.374Z" fill="#F0F0F0"/>
<path d="M208.264 281.115H205.354V282.746H208.264V281.115Z" fill="#F0F0F0"/>
<path d="M208.264 283.849H205.354V285.481H208.264V283.849Z" fill="#F0F0F0"/>
<path d="M208.264 286.584H205.354V288.216H208.264V286.584Z" fill="#F0F0F0"/>
<path d="M208.264 289.319H205.354V290.951H208.264V289.319Z" fill="#F0F0F0"/>
<path d="M180.187 247.469H177.276V249.101H180.187V247.469Z" fill="#F0F0F0"/>
<path d="M180.187 250.204H177.276V251.836H180.187V250.204Z" fill="#F0F0F0"/>
<path d="M180.187 252.939H177.276V254.57H180.187V252.939Z" fill="#F0F0F0"/>
<path d="M180.187 255.674H177.276V257.305H180.187V255.674Z" fill="#F0F0F0"/>
<path d="M180.187 258.409H177.276V260.04H180.187V258.409Z" fill="#F0F0F0"/>
<path d="M180.187 261.144H177.276V262.775H180.187V261.144Z" fill="#F0F0F0"/>
<path d="M180.187 269.354H177.276V270.985H180.187V269.354Z" fill="#F0F0F0"/>
<path d="M180.187 272.089H177.276V273.72H180.187V272.089Z" fill="#F0F0F0"/>
<path d="M180.187 274.824H177.276V276.455H180.187V274.824Z" fill="#F0F0F0"/>
<path d="M180.187 277.559H177.276V279.19H180.187V277.559Z" fill="#F0F0F0"/>
<path d="M180.187 280.299H177.276V281.93H180.187V280.299Z" fill="#F0F0F0"/>
<path d="M180.187 283.034H177.276V284.665H180.187V283.034Z" fill="#F0F0F0"/>
<path d="M180.187 285.769H177.276V287.4H180.187V285.769Z" fill="#F0F0F0"/>
<path d="M184.812 247.469H181.901V249.101H184.812V247.469Z" fill="#F0F0F0"/>
<path d="M184.812 250.204H181.901V251.836H184.812V250.204Z" fill="#F0F0F0"/>
<path d="M184.812 252.939H181.901V254.57H184.812V252.939Z" fill="#F0F0F0"/>
<path d="M184.812 255.674H181.901V257.305H184.812V255.674Z" fill="#F0F0F0"/>
<path d="M184.812 258.409H181.901V260.04H184.812V258.409Z" fill="#F0F0F0"/>
<path d="M184.812 261.144H181.901V262.775H184.812V261.144Z" fill="#F0F0F0"/>
<path d="M184.812 269.354H181.901V270.985H184.812V269.354Z" fill="#F0F0F0"/>
<path d="M184.812 272.089H181.901V273.72H184.812V272.089Z" fill="#F0F0F0"/>
<path d="M184.812 274.824H181.901V276.455H184.812V274.824Z" fill="#F0F0F0"/>
<path d="M184.812 277.559H181.901V279.19H184.812V277.559Z" fill="#F0F0F0"/>
<path d="M184.812 280.299H181.901V281.93H184.812V280.299Z" fill="#F0F0F0"/>
<path d="M184.812 283.034H181.901V284.665H184.812V283.034Z" fill="#F0F0F0"/>
<path d="M184.812 288.504H181.901V290.135H184.812V288.504Z" fill="#F0F0F0"/>
<path d="M338.388 235.421H335.478V237.052H338.388V235.421Z" fill="#F0F0F0"/>
<path d="M338.388 238.156H335.478V239.787H338.388V238.156Z" fill="#F0F0F0"/>
<path d="M338.388 240.891H335.478V242.522H338.388V240.891Z" fill="#F0F0F0"/>
<path d="M338.388 243.625H335.478V245.257H338.388V243.625Z" fill="#F0F0F0"/>
<path d="M338.388 246.366H335.478V247.997H338.388V246.366Z" fill="#F0F0F0"/>
<path d="M338.388 249.101H335.478V250.732H338.388V249.101Z" fill="#F0F0F0"/>
<path d="M338.388 251.836H335.478V253.467H338.388V251.836Z" fill="#F0F0F0"/>
<path d="M338.388 254.57H335.478V256.202H338.388V254.57Z" fill="#F0F0F0"/>
<path d="M338.388 257.305H335.478V258.937H338.388V257.305Z" fill="#F0F0F0"/>
<path d="M338.388 260.04H335.478V261.672H338.388V260.04Z" fill="#F0F0F0"/>
<path d="M338.388 262.781H335.478V264.412H338.388V262.781Z" fill="#F0F0F0"/>
<path d="M338.388 268.25H335.478V269.882H338.388V268.25Z" fill="#F0F0F0"/>
<path d="M338.388 270.985H335.478V272.617H338.388V270.985Z" fill="#F0F0F0"/>
<path d="M338.388 273.72H335.478V275.351H338.388V273.72Z" fill="#F0F0F0"/>
<path d="M338.388 276.455H335.478V278.086H338.388V276.455Z" fill="#F0F0F0"/>
<path d="M338.388 279.195H335.478V280.827H338.388V279.195Z" fill="#F0F0F0"/>
<path d="M338.388 281.93H335.478V283.562H338.388V281.93Z" fill="#F0F0F0"/>
<path d="M338.388 284.665H335.478V286.296H338.388V284.665Z" fill="#F0F0F0"/>
<path d="M338.388 287.4H335.478V289.031H338.388V287.4Z" fill="#F0F0F0"/>
<path d="M343.004 235.421H340.094V237.052H343.004V235.421Z" fill="#F0F0F0"/>
<path d="M343.004 238.156H340.094V239.787H343.004V238.156Z" fill="#F0F0F0"/>
<path d="M343.004 240.891H340.094V242.522H343.004V240.891Z" fill="#F0F0F0"/>
<path d="M343.004 243.625H340.094V245.257H343.004V243.625Z" fill="#F0F0F0"/>
<path d="M343.004 246.366H340.094V247.997H343.004V246.366Z" fill="#F0F0F0"/>
<path d="M343.004 249.101H340.094V250.732H343.004V249.101Z" fill="#F0F0F0"/>
<path d="M343.004 251.836H340.094V253.467H343.004V251.836Z" fill="#F0F0F0"/>
<path d="M343.004 254.57H340.094V256.202H343.004V254.57Z" fill="#F0F0F0"/>
<path d="M343.004 257.305H340.094V258.937H343.004V257.305Z" fill="#F0F0F0"/>
<path d="M343.004 260.04H340.094V261.672H343.004V260.04Z" fill="#F0F0F0"/>
<path d="M343.004 262.781H340.094V264.412H343.004V262.781Z" fill="#F0F0F0"/>
<path d="M343.004 265.515H340.094V267.147H343.004V265.515Z" fill="#F0F0F0"/>
<path d="M343.004 268.25H340.094V269.882H343.004V268.25Z" fill="#F0F0F0"/>
<path d="M343.004 270.985H340.094V272.617H343.004V270.985Z" fill="#F0F0F0"/>
<path d="M343.004 273.72H340.094V275.351H343.004V273.72Z" fill="#F0F0F0"/>
<path d="M343.004 276.455H340.094V278.086H343.004V276.455Z" fill="#F0F0F0"/>
<path d="M343.004 279.195H340.094V280.827H343.004V279.195Z" fill="#F0F0F0"/>
<path d="M343.004 281.93H340.094V283.562H343.004V281.93Z" fill="#F0F0F0"/>
<path d="M343.004 284.665H340.094V286.296H343.004V284.665Z" fill="#F0F0F0"/>
<path d="M343.004 287.4H340.094V289.031H343.004V287.4Z" fill="#F0F0F0"/>
<path d="M315.613 246.078H312.702V247.709H315.613V246.078Z" fill="#F0F0F0"/>
<path d="M315.613 248.813H312.702V250.444H315.613V248.813Z" fill="#F0F0F0"/>
<path d="M315.613 251.548H312.702V253.179H315.613V251.548Z" fill="#F0F0F0"/>
<path d="M315.613 254.283H312.702V255.914H315.613V254.283Z" fill="#F0F0F0"/>
<path d="M315.613 257.017H312.702V258.649H315.613V257.017Z" fill="#F0F0F0"/>
<path d="M315.613 259.752H312.702V261.384H315.613V259.752Z" fill="#F0F0F0"/>
<path d="M315.613 262.493H312.702V264.124H315.613V262.493Z" fill="#F0F0F0"/>
<path d="M315.613 265.228H312.702V266.859H315.613V265.228Z" fill="#F0F0F0"/>
<path d="M315.613 267.962H312.702V269.594H315.613V267.962Z" fill="#F0F0F0"/>
<path d="M315.613 270.697H312.702V272.329H315.613V270.697Z" fill="#F0F0F0"/>
<path d="M320.239 246.078H317.328V247.709H320.239V246.078Z" fill="#F0F0F0"/>
<path d="M320.239 248.813H317.328V250.444H320.239V248.813Z" fill="#F0F0F0"/>
<path d="M320.239 251.548H317.328V253.179H320.239V251.548Z" fill="#F0F0F0"/>
<path d="M320.239 254.283H317.328V255.914H320.239V254.283Z" fill="#F0F0F0"/>
<path d="M320.239 257.017H317.328V258.649H320.239V257.017Z" fill="#F0F0F0"/>
<path d="M320.239 259.752H317.328V261.384H320.239V259.752Z" fill="#F0F0F0"/>
<path d="M320.239 262.493H317.328V264.124H320.239V262.493Z" fill="#F0F0F0"/>
<path d="M320.239 265.228H317.328V266.859H320.239V265.228Z" fill="#F0F0F0"/>
<path d="M320.239 267.962H317.328V269.594H320.239V267.962Z" fill="#F0F0F0"/>
<path d="M180.01 203.252C179.989 202.468 180.541 201.712 181.544 201.149C182.548 200.587 183.92 200.263 185.361 200.251C185.883 200.252 186.401 200.295 186.9 200.379C186.821 200.073 186.781 199.765 186.782 199.457C186.743 197.801 187.913 196.204 190.034 195.017C192.156 193.829 195.057 193.148 198.101 193.123C198.802 193.122 199.501 193.16 200.189 193.235C201.046 192.427 202.279 191.755 203.763 191.288C205.247 190.82 206.931 190.572 208.646 190.569C211.287 190.592 213.806 191.179 215.658 192.203C217.51 193.228 218.547 194.608 218.544 196.045H218.75C221.191 196.087 223.506 196.645 225.205 197.6C226.904 198.554 227.854 199.831 227.854 201.16C227.854 202.489 226.904 203.765 225.205 204.72C223.506 205.675 221.191 206.232 218.75 206.275H185.214C183.791 206.243 182.449 205.908 181.475 205.343C180.502 204.778 179.976 204.027 180.01 203.252V203.252Z" fill="#F5F5F5"/>
<path d="M279.589 347.801C434.002 347.801 559.179 341.223 559.179 333.108C559.179 324.993 434.002 318.414 279.589 318.414C125.176 318.414 0 324.993 0 333.108C0 341.223 125.176 347.801 279.589 347.801Z" fill="#F5F5F5"/>
<path d="M49.8645 230.449C50.1673 232.357 44.4137 233.603 39.7705 234.343C40.1454 237.808 42.6545 241.3 46.2451 244.571C50.7009 242.312 57.0457 239.379 58.2137 240.067C59.3817 240.755 52.9936 244.649 48.9272 246.868C51.834 249.151 54.9128 251.25 58.1416 253.151C60.1315 251.476 62.4676 250.01 63.9096 250.801C65.3516 251.593 64.9622 254.215 64.2413 256.539C69.0864 259.135 72.7058 260.627 72.7058 260.627C74.1137 256.58 75.1932 252.446 75.9359 248.257C75.7051 247.816 75.46 247.375 75.2293 246.959C74.4506 245.337 75.2293 244.636 76.4982 244.363C76.8653 241.401 76.8943 238.413 76.5848 235.446C71.1052 234.421 64.4431 232.5 66.9378 229.54C68.3798 227.762 71.2638 227.554 74.0613 228.009C73.6673 227.418 73.2135 226.862 72.7058 226.347C62.7416 216.456 55.7911 226.347 55.7911 226.347C50.0231 221.999 41.847 223.18 40.0877 229.968C43.2601 229.203 49.4896 228.086 49.8645 230.449Z" fill="#263238"/>
<path opacity="0.3" d="M49.8645 230.449C50.1673 232.357 44.4137 233.603 39.7705 234.343C40.1454 237.808 42.6545 241.3 46.2451 244.571C50.7009 242.312 57.0457 239.379 58.2137 240.067C59.3817 240.755 52.9936 244.649 48.9272 246.868C51.834 249.151 54.9128 251.25 58.1416 253.151C60.1315 251.476 62.4676 250.01 63.9096 250.801C65.3516 251.593 64.9622 254.215 64.2413 256.539C69.0864 259.135 72.7058 260.627 72.7058 260.627C74.1137 256.58 75.1932 252.446 75.9359 248.257C75.7051 247.816 75.46 247.375 75.2293 246.959C74.4506 245.337 75.2293 244.636 76.4982 244.363C76.8653 241.401 76.8943 238.413 76.5848 235.446C71.1052 234.421 64.4431 232.5 66.9378 229.54C68.3798 227.762 71.2638 227.554 74.0613 228.009C73.6673 227.418 73.2135 226.862 72.7058 226.347C62.7416 216.456 55.7911 226.347 55.7911 226.347C50.0231 221.999 41.847 223.18 40.0877 229.968C43.2601 229.203 49.4896 228.086 49.8645 230.449Z" fill="white"/>
<path d="M62.2944 303.111L60.8524 303.007C60.8524 302.345 66.7502 236.134 50.2393 229.891C49.4536 229.557 48.5923 229.393 47.7238 229.411C46.8553 229.429 46.0034 229.629 45.2356 229.994C39.2945 232.85 36.4249 244.389 36.3961 244.532L34.9541 244.246C35.0695 243.753 37.9823 231.954 44.5434 228.878C45.4991 228.424 46.5579 228.174 47.638 228.147C48.7181 228.12 49.7906 228.317 50.7728 228.722C68.2787 235.29 62.554 300.346 62.2944 303.111Z" fill="#263238"/>
<path d="M64.3856 301.644C64.0828 298.659 57.3487 228.606 69.9517 221.168C72.9655 219.39 75.7197 219 77.9548 220.052C83.9103 222.752 84.689 234.213 84.7178 234.693L83.2758 234.771C83.2758 234.654 82.5115 223.569 77.3059 221.207C75.5034 220.389 73.2972 220.74 70.7448 222.258C58.8628 229.268 65.7411 300.8 65.8132 301.527L64.3856 301.644Z" fill="#263238"/>
<path d="M66.2751 307.342C66.1886 305.058 64.1121 251.437 75.576 246.739C76.6462 246.29 77.8127 246.057 78.9935 246.057C80.1743 246.057 81.3408 246.29 82.4111 246.739C90.2844 249.854 95.1439 263.055 95.3891 263.613L93.9471 264.015C93.9471 263.885 89.0731 250.801 81.791 247.92C80.9106 247.542 79.9474 247.345 78.9719 247.345C77.9964 247.345 77.0332 247.542 76.1528 247.92C67.3566 251.528 67.0538 292.052 67.6882 307.29L66.2751 307.342Z" fill="#263238"/>
<path d="M63.3619 304.889L61.9199 304.746C63.9387 288.781 67.8177 246.258 61.5018 241.144C61.1935 240.81 60.7843 240.564 60.3236 240.435C59.8629 240.306 59.3705 240.3 58.9061 240.417C54.6378 241.936 52.0999 255.76 51.4654 260.965L50.0234 260.822C50.2686 258.823 52.5758 241.261 58.387 239.249C59.0932 239.038 59.8522 239.017 60.5716 239.187C61.2911 239.358 61.9399 239.713 62.4391 240.21C70.6152 246.765 63.6503 302.514 63.3619 304.889Z" fill="#263238"/>
<path d="M39.2949 274.633H91.0916L86.7656 326.864H43.6209L39.2949 274.633Z" fill="#293E6F"/>
<path opacity="0.2" d="M55.0273 274.633L56.4693 326.864H86.7658L91.0918 274.633H55.0273Z" fill="white"/>
<path d="M46.3461 255.461C45.8126 256.759 41.7894 255.734 38.6314 254.721C37.5355 256.98 37.795 259.913 38.7179 263.042C42.3229 263.042 47.3699 263.132 47.8314 263.95C48.2928 264.768 42.8565 265.157 39.4966 265.248C40.4212 267.554 41.5196 269.801 42.7844 271.972C44.659 271.556 46.6633 271.362 47.2113 272.283C47.7593 273.205 46.5624 274.724 45.2358 275.931C47.2546 278.981 48.8984 281.123 48.8984 281.123C51.3117 279.063 53.5529 276.846 55.6038 274.49C55.6038 274.152 55.6038 273.802 55.6038 273.451C55.7479 272.153 56.4834 272.011 57.363 272.27C58.7121 270.56 59.8621 268.728 60.7949 266.806C57.81 264.469 54.4357 261.237 57.1034 260.186C58.7041 259.55 60.4921 260.277 62.0783 261.484C62.0698 260.998 62.0021 260.515 61.8764 260.043C59.4971 250.866 51.4364 254.851 51.4364 254.851C49.5185 250.373 44.0533 248.595 40.3907 252.255C42.7555 252.658 47.0094 253.891 46.3461 255.461Z" fill="#263238"/>
<path opacity="0.3" d="M46.3461 255.461C45.8126 256.759 41.7894 255.734 38.6314 254.721C37.5355 256.98 37.795 259.913 38.7179 263.042C42.3229 263.042 47.3699 263.132 47.8314 263.95C48.2928 264.768 42.8565 265.157 39.4966 265.248C40.4212 267.554 41.5196 269.801 42.7844 271.972C44.659 271.556 46.6633 271.362 47.2113 272.283C47.7593 273.205 46.5624 274.724 45.2358 275.931C47.2546 278.981 48.8984 281.123 48.8984 281.123C51.3117 279.063 53.5529 276.846 55.6038 274.49C55.6038 274.152 55.6038 273.802 55.6038 273.451C55.7479 272.153 56.4834 272.011 57.363 272.27C58.7121 270.56 59.8621 268.728 60.7949 266.806C57.81 264.469 54.4357 261.237 57.1034 260.186C58.7041 259.55 60.4921 260.277 62.0783 261.484C62.0698 260.998 62.0021 260.515 61.8764 260.043C59.4971 250.866 51.4364 254.851 51.4364 254.851C49.5185 250.373 44.0533 248.595 40.3907 252.255C42.7555 252.658 47.0094 253.891 46.3461 255.461Z" fill="white"/>
<path d="M84.819 261.666C83.2025 261.786 81.6089 262.087 80.0748 262.561C79.6693 261.57 79.4358 260.528 79.3827 259.472C79.051 250.075 86.5927 254.033 90.4861 251.269C91.3832 250.559 92.4361 250.027 93.5763 249.707C94.7165 249.388 95.9187 249.287 97.1048 249.413C96.7583 249.926 96.4593 250.464 96.2108 251.022C96.119 251.227 96.0795 251.449 96.0954 251.67C96.1112 251.891 96.182 252.106 96.3023 252.299C96.4227 252.492 96.5897 252.658 96.791 252.785C96.9923 252.913 97.2227 252.998 97.4653 253.034C98.4396 253.195 99.445 253.086 100.349 252.722C100.614 252.582 100.865 252.421 101.099 252.242C101.727 253.234 102.211 254.294 102.541 255.396C102.936 256.71 103.159 258.06 103.204 259.42C102.614 259.537 102.031 259.685 101.46 259.861C101.233 259.95 101.032 260.084 100.871 260.252C100.711 260.421 100.595 260.621 100.532 260.836C100.47 261.051 100.462 261.276 100.51 261.494C100.559 261.712 100.661 261.917 100.811 262.094C101.437 262.654 102.163 263.114 102.959 263.457C102.698 264.966 102.258 266.445 101.647 267.87H101.114C100.734 267.938 100.358 268.025 99.9888 268.13C99.7772 268.181 99.5699 268.246 99.3688 268.324C99.1121 268.426 98.8878 268.583 98.7165 268.783C98.5452 268.982 98.4323 269.218 98.3882 269.467C98.3474 269.723 98.3833 269.984 98.4923 270.224C98.6013 270.464 98.7795 270.673 99.0083 270.83C99.2538 270.992 99.5143 271.135 99.787 271.258C98.7858 272.809 97.3614 274.105 95.6484 275.022C94.1331 274.4 92.6597 273.697 91.2359 272.919C91.5531 272.543 91.8704 272.166 92.1588 271.777C92.4973 271.352 92.6559 270.832 92.6058 270.31C92.5703 270.049 92.4773 269.796 92.3322 269.567C92.187 269.338 91.9927 269.137 91.7605 268.976C91.5283 268.816 91.2628 268.698 90.9797 268.631C90.6965 268.564 90.4012 268.548 90.1111 268.584C89.5391 268.654 89.0209 268.925 88.6691 269.337C88.3231 269.804 87.9337 270.245 87.5588 270.635C85.5667 269.312 83.7818 267.753 82.2522 266.001H82.4109C83.3548 265.773 84.3203 265.626 85.2949 265.56C85.88 265.493 86.4115 265.219 86.7726 264.799C87.1336 264.379 87.2945 263.847 87.2199 263.321C87.1454 262.794 86.8414 262.315 86.3749 261.99C85.9084 261.665 85.3176 261.521 84.7325 261.588L84.819 261.666Z" fill="#263238"/>
<path opacity="0.5" d="M84.819 261.666C83.2025 261.786 81.6089 262.087 80.0748 262.561C79.6693 261.57 79.4358 260.528 79.3827 259.472C79.051 250.075 86.5927 254.033 90.4861 251.269C91.3832 250.559 92.4361 250.027 93.5763 249.707C94.7165 249.388 95.9187 249.287 97.1048 249.413C96.7583 249.926 96.4593 250.464 96.2108 251.022C96.119 251.227 96.0795 251.449 96.0954 251.67C96.1112 251.891 96.182 252.106 96.3023 252.299C96.4227 252.492 96.5897 252.658 96.791 252.785C96.9923 252.913 97.2227 252.998 97.4653 253.034C98.4396 253.195 99.445 253.086 100.349 252.722C100.614 252.582 100.865 252.421 101.099 252.242C101.727 253.234 102.211 254.294 102.541 255.396C102.936 256.71 103.159 258.06 103.204 259.42C102.614 259.537 102.031 259.685 101.46 259.861C101.233 259.95 101.032 260.084 100.871 260.252C100.711 260.421 100.595 260.621 100.532 260.836C100.47 261.051 100.462 261.276 100.51 261.494C100.559 261.712 100.661 261.917 100.811 262.094C101.437 262.654 102.163 263.114 102.959 263.457C102.698 264.966 102.258 266.445 101.647 267.87H101.114C100.734 267.938 100.358 268.025 99.9888 268.13C99.7772 268.181 99.5699 268.246 99.3688 268.324C99.1121 268.426 98.8878 268.583 98.7165 268.783C98.5452 268.982 98.4323 269.218 98.3882 269.467C98.3474 269.723 98.3833 269.984 98.4923 270.224C98.6013 270.464 98.7795 270.673 99.0083 270.83C99.2538 270.992 99.5143 271.135 99.787 271.258C98.7858 272.809 97.3614 274.105 95.6484 275.022C94.1331 274.4 92.6597 273.697 91.2359 272.919C91.5531 272.543 91.8704 272.166 92.1588 271.777C92.4973 271.352 92.6559 270.832 92.6058 270.31C92.5703 270.049 92.4773 269.796 92.3322 269.567C92.187 269.338 91.9927 269.137 91.7605 268.976C91.5283 268.816 91.2628 268.698 90.9797 268.631C90.6965 268.564 90.4012 268.548 90.1111 268.584C89.5391 268.654 89.0209 268.925 88.6691 269.337C88.3231 269.804 87.9337 270.245 87.5588 270.635C85.5667 269.312 83.7818 267.753 82.2522 266.001H82.4109C83.3548 265.773 84.3203 265.626 85.2949 265.56C85.88 265.493 86.4115 265.219 86.7726 264.799C87.1336 264.379 87.2945 263.847 87.2199 263.321C87.1454 262.794 86.8414 262.315 86.3749 261.99C85.9084 261.665 85.3176 261.521 84.7325 261.588L84.819 261.666Z" fill="white"/>
<path d="M87.8041 229.242C88.6992 228.671 89.6675 228.201 90.6881 227.84C90.4211 227.158 90.0367 226.519 89.549 225.945C85.1364 220.87 83.1465 225.945 79.7145 226.023C78.9064 226.007 78.1037 226.145 77.3584 226.427C76.6132 226.708 75.942 227.128 75.3885 227.658C75.8215 227.79 76.2412 227.955 76.6431 228.151C76.7942 228.221 76.9255 228.322 77.0268 228.444C77.1281 228.567 77.1967 228.709 77.2273 228.86C77.258 229.01 77.2498 229.165 77.2035 229.312C77.1572 229.46 77.074 229.595 76.9603 229.709C76.5276 230.19 75.937 230.535 75.2731 230.695C75.0622 230.715 74.8496 230.715 74.6387 230.695C74.7991 231.461 75.0605 232.206 75.4174 232.915C75.8549 233.759 76.3966 234.556 77.0324 235.29C77.3964 235.118 77.7721 234.966 78.1571 234.836C78.3205 234.793 78.4926 234.783 78.6606 234.808C78.8286 234.834 78.988 234.893 79.1269 234.981C79.2657 235.07 79.3804 235.186 79.4622 235.321C79.544 235.455 79.5908 235.604 79.5991 235.758C79.5449 236.298 79.3837 236.826 79.1233 237.315C80.0126 238.005 80.9791 238.61 82.0073 239.119L82.3245 238.951C82.5552 238.834 82.8004 238.73 83.0455 238.626C83.1834 238.567 83.3287 238.524 83.4781 238.496C83.6612 238.449 83.8545 238.443 84.0407 238.479C84.2269 238.516 84.4002 238.593 84.5452 238.704C84.6875 238.825 84.7928 238.977 84.8509 239.145C84.909 239.313 84.9179 239.492 84.8769 239.665C84.8312 239.848 84.7635 240.026 84.675 240.197C85.9568 240.618 87.3375 240.734 88.6838 240.534C89.1759 239.61 89.6092 238.661 89.9816 237.692C89.6355 237.631 89.2894 237.553 88.9433 237.458C88.5549 237.372 88.2157 237.159 87.9916 236.861C87.7753 236.552 87.7028 236.179 87.7897 235.823C87.8284 235.646 87.9073 235.479 88.0214 235.331C88.1356 235.184 88.2826 235.059 88.453 234.966C88.7938 234.778 89.2006 234.713 89.5922 234.784L90.8323 235.057C91.2356 233.575 91.4151 232.051 91.3659 230.527H91.2649C90.6425 230.787 90.0487 231.1 89.4913 231.461C89.1509 231.656 88.7386 231.721 88.3452 231.641C87.9517 231.562 87.6092 231.346 87.3932 231.039C87.1771 230.733 87.1051 230.362 87.193 230.008C87.2808 229.654 87.5214 229.345 87.8618 229.151L87.8041 229.242Z" fill="#263238"/>
<path opacity="0.3" d="M87.8041 229.242C88.6992 228.671 89.6675 228.201 90.6881 227.84C90.4211 227.158 90.0367 226.519 89.549 225.945C85.1364 220.87 83.1465 225.945 79.7145 226.023C78.9064 226.007 78.1037 226.145 77.3584 226.427C76.6132 226.708 75.942 227.128 75.3885 227.658C75.8215 227.79 76.2412 227.955 76.6431 228.151C76.7942 228.221 76.9255 228.322 77.0268 228.444C77.1281 228.567 77.1967 228.709 77.2273 228.86C77.258 229.01 77.2498 229.165 77.2035 229.312C77.1572 229.46 77.074 229.595 76.9603 229.709C76.5276 230.19 75.937 230.535 75.2731 230.695C75.0622 230.715 74.8496 230.715 74.6387 230.695C74.7991 231.461 75.0605 232.206 75.4174 232.915C75.8549 233.759 76.3966 234.556 77.0324 235.29C77.3964 235.118 77.7721 234.966 78.1571 234.836C78.3205 234.793 78.4926 234.783 78.6606 234.808C78.8286 234.834 78.988 234.893 79.1269 234.981C79.2657 235.07 79.3804 235.186 79.4622 235.321C79.544 235.455 79.5908 235.604 79.5991 235.758C79.5449 236.298 79.3837 236.826 79.1233 237.315C80.0126 238.005 80.9791 238.61 82.0073 239.119L82.3245 238.951C82.5552 238.834 82.8004 238.73 83.0455 238.626C83.1834 238.567 83.3287 238.524 83.4781 238.496C83.6612 238.449 83.8545 238.443 84.0407 238.479C84.2269 238.516 84.4002 238.593 84.5452 238.704C84.6875 238.825 84.7928 238.977 84.8509 239.145C84.909 239.313 84.9179 239.492 84.8769 239.665C84.8312 239.848 84.7635 240.026 84.675 240.197C85.9568 240.618 87.3375 240.734 88.6838 240.534C89.1759 239.61 89.6092 238.661 89.9816 237.692C89.6355 237.631 89.2894 237.553 88.9433 237.458C88.5549 237.372 88.2157 237.159 87.9916 236.861C87.7753 236.552 87.7028 236.179 87.7897 235.823C87.8284 235.646 87.9073 235.479 88.0214 235.331C88.1356 235.184 88.2826 235.059 88.453 234.966C88.7938 234.778 89.2006 234.713 89.5922 234.784L90.8323 235.057C91.2356 233.575 91.4151 232.051 91.3659 230.527H91.2649C90.6425 230.787 90.0487 231.1 89.4913 231.461C89.1509 231.656 88.7386 231.721 88.3452 231.641C87.9517 231.562 87.6092 231.346 87.3932 231.039C87.1771 230.733 87.1051 230.362 87.193 230.008C87.2808 229.654 87.5214 229.345 87.8618 229.151L87.8041 229.242Z" fill="white"/>
<path d="M45.5964 238.652C45.2936 240.56 51.0472 241.819 55.6904 242.546C55.3011 246.012 52.8064 249.516 49.2014 252.787C44.7601 250.529 38.4009 247.595 37.2328 248.27C36.0648 248.945 42.4673 252.852 46.5337 255.085C43.63 257.377 40.5563 259.489 37.3338 261.406C35.3294 259.719 33.0078 258.252 31.5658 259.044C30.1238 259.835 30.5131 262.47 31.2197 264.781C26.389 267.377 22.7552 268.87 22.7552 268.87C21.3473 264.822 20.2677 260.688 19.5251 256.5C19.7702 256.071 20.0154 255.63 20.2317 255.202C21.0103 253.579 20.2317 252.891 18.9627 252.606C18.6244 249.645 18.6244 246.662 18.9627 243.701C24.4423 242.663 31.1043 240.755 28.6097 237.795C27.1677 236.004 24.2837 235.809 21.4862 236.251C21.8703 235.658 22.3196 235.101 22.8273 234.589C32.8059 224.699 39.7563 234.589 39.7563 234.589C45.5243 230.241 53.6861 231.422 55.4453 238.211C52.2008 237.419 45.9858 236.303 45.5964 238.652Z" fill="#263238"/>
<path opacity="0.5" d="M45.5964 238.652C45.2936 240.56 51.0472 241.819 55.6904 242.546C55.3011 246.012 52.8064 249.516 49.2014 252.787C44.7601 250.529 38.4009 247.595 37.2328 248.27C36.0648 248.945 42.4673 252.852 46.5337 255.085C43.63 257.377 40.5563 259.489 37.3338 261.406C35.3294 259.719 33.0078 258.252 31.5658 259.044C30.1238 259.835 30.5131 262.47 31.2197 264.781C26.389 267.377 22.7552 268.87 22.7552 268.87C21.3473 264.822 20.2677 260.688 19.5251 256.5C19.7702 256.071 20.0154 255.63 20.2317 255.202C21.0103 253.579 20.2317 252.891 18.9627 252.606C18.6244 249.645 18.6244 246.662 18.9627 243.701C24.4423 242.663 31.1043 240.755 28.6097 237.795C27.1677 236.004 24.2837 235.809 21.4862 236.251C21.8703 235.658 22.3196 235.101 22.8273 234.589C32.8059 224.699 39.7563 234.589 39.7563 234.589C45.5243 230.241 53.6861 231.422 55.4453 238.211C52.2008 237.419 45.9858 236.303 45.5964 238.652Z" fill="white"/>
<path d="M336.404 320.608V165.328H328.603V320.608L318.596 324.112V326.864H331.588H333.419H346.397V324.112L336.404 320.608Z" fill="#263238"/>
<path d="M480.691 320.608V165.328H472.89V320.608L462.896 324.112V326.864H475.874H477.706H490.698V324.112L480.691 320.608Z" fill="#263238"/>
<path opacity="0.5" d="M346.412 324.112V326.864H318.596V324.112L328.603 320.595V165.328H336.404V320.595L346.412 324.112Z" fill="white"/>
<path opacity="0.5" d="M490.698 324.112V326.864H462.896V324.112L472.89 320.595V165.328H480.691V320.595L490.698 324.112Z" fill="white"/>
<path opacity="0.2" d="M328.604 165.328H336.405V180.229L328.604 179.437V165.328Z" fill="black"/>
<path opacity="0.2" d="M480.691 165.328V194.793L472.89 194.001V165.328H480.691Z" fill="black"/>
<path d="M504.339 23.249H304.954V174.765H504.339V23.249Z" fill="#263238"/>
<path d="M504.542 156.073H304.738V174.778H504.542V156.073Z" fill="#293E6F"/>
<path d="M504.542 23.249H304.738V41.9532H504.542V23.249Z" fill="#293E6F"/>
<g opacity="0.7">
<path opacity="0.7" d="M324.969 156.073L310.145 174.765H304.954V167.885L314.327 156.073H324.969Z" fill="white"/>
<path opacity="0.7" d="M330.68 174.765H320.023L334.862 156.073H345.504L330.68 174.765Z" fill="white"/>
<path opacity="0.7" d="M351.213 174.765H340.557L355.395 156.073H366.037L351.213 174.765Z" fill="white"/>
<path opacity="0.7" d="M371.747 174.765H361.091L375.929 156.073H386.571L371.747 174.765Z" fill="white"/>
<path opacity="0.7" d="M392.282 174.765H381.64L396.463 156.073H407.12L392.282 174.765Z" fill="white"/>
<path opacity="0.7" d="M412.816 174.765H402.174L416.998 156.073H427.654L412.816 174.765Z" fill="white"/>
<path opacity="0.7" d="M433.35 174.765H422.708L437.546 156.073H448.188L433.35 174.765Z" fill="white"/>
<path opacity="0.7" d="M453.899 174.765H443.242L458.08 156.073H468.722L453.899 174.765Z" fill="white"/>
<path opacity="0.7" d="M474.433 174.765H463.776L478.615 156.073H489.256L474.433 174.765Z" fill="white"/>
<path opacity="0.7" d="M504.339 156.073V162.953L494.966 174.765H484.324L499.148 156.073H504.339Z" fill="white"/>
</g>
<g opacity="0.7">
<path opacity="0.7" d="M324.969 23.249L310.145 41.9532H304.954V35.0608L314.327 23.249H324.969Z" fill="white"/>
<path opacity="0.7" d="M330.68 41.9532H320.023L334.862 23.249H345.504L330.68 41.9532Z" fill="white"/>
<path opacity="0.7" d="M351.213 41.9532H340.557L355.395 23.249H366.037L351.213 41.9532Z" fill="white"/>
<path opacity="0.7" d="M371.747 41.9532H361.091L375.929 23.249H386.571L371.747 41.9532Z" fill="white"/>
<path opacity="0.7" d="M392.282 41.9532H381.64L396.463 23.249H407.12L392.282 41.9532Z" fill="white"/>
<path opacity="0.7" d="M412.816 41.9532H402.174L416.998 23.249H427.654L412.816 41.9532Z" fill="white"/>
<path opacity="0.7" d="M433.35 41.9532H422.708L437.546 23.249H448.188L433.35 41.9532Z" fill="white"/>
<path opacity="0.7" d="M453.899 41.9532H443.242L458.08 23.249H468.722L453.899 41.9532Z" fill="white"/>
<path opacity="0.7" d="M474.433 41.9532H463.776L478.615 23.249H489.256L474.433 41.9532Z" fill="white"/>
<path opacity="0.7" d="M504.339 23.249V30.1414L494.966 41.9532H484.324L499.148 23.249H504.339Z" fill="white"/>
</g>
<g opacity="0.6">
<path opacity="0.6" d="M379.088 121.001H369.239V132.463H362.029V121.001H333.189V116.342L359.679 85.8386H367.668L342.288 115.277H362.188V105.153H369.138V115.277H379.088V121.001Z" fill="white"/>
<path opacity="0.6" d="M383.516 109.151C383.516 93.9641 392.543 85.3064 404.684 85.3064C416.826 85.3064 425.781 93.9641 425.781 109.151C425.781 124.337 416.739 132.995 404.684 132.995C392.629 132.995 383.516 124.337 383.516 109.151ZM418.369 109.151C418.369 97.222 412.745 91.2382 404.684 91.2382C396.623 91.2382 390.927 97.222 390.927 109.151C390.927 121.079 396.551 127.063 404.684 127.063C412.817 127.063 418.369 121.066 418.369 109.151Z" fill="white"/>
<path opacity="0.6" d="M477.937 121.001H468.088V132.463H460.878V121.001H432.038V116.342L458.528 85.8386H466.531L441.152 115.277H461.051V105.153H468.002V115.277H477.85L477.937 121.001Z" fill="white"/>
</g>
<g opacity="0.6">
<path opacity="0.6" d="M380.068 65.1095V67.4329H369.282V54.8813H379.809V57.2177H372.483V59.9435H378.958V62.202H372.483V65.1095H380.068Z" fill="white"/>
<path opacity="0.6" d="M391.517 67.4329L388.821 63.9413H385.865V67.4329H382.635V54.8813H388.662C392.397 54.8813 394.719 56.6206 394.719 59.4373C394.741 60.2744 394.476 61.0973 393.96 61.794C393.444 62.4907 392.702 63.0275 391.835 63.3312L394.964 67.368L391.517 67.4329ZM388.489 57.2566H385.865V61.6309H388.489C390.465 61.6309 391.46 60.8001 391.46 59.4373C391.46 58.0744 390.465 57.2566 388.489 57.2566Z" fill="white"/>
<path opacity="0.6" d="M406.14 67.4329L403.457 63.9413H400.487V67.4329H397.257V54.8813H403.299C407.019 54.8813 409.355 56.6206 409.355 59.4373C409.375 60.274 409.109 61.096 408.593 61.7924C408.078 62.4888 407.337 63.0259 406.471 63.3312L409.586 67.368L406.14 67.4329ZM403.111 57.2566H400.487V61.6309H403.111C405.087 61.6309 406.082 60.8001 406.082 59.4373C406.082 58.0744 405.044 57.2566 403.111 57.2566Z" fill="white"/>
<path opacity="0.6" d="M411.013 61.1636C410.927 59.7885 411.301 58.4217 412.087 57.24C412.873 56.0584 414.035 55.1163 415.422 54.5358C416.81 53.9552 418.359 53.7629 419.869 53.9838C421.379 54.2047 422.781 54.8285 423.893 55.7746C425.005 56.7207 425.776 57.9454 426.106 59.2903C426.436 60.6352 426.31 62.0383 425.745 63.3179C425.179 64.5976 424.199 65.695 422.933 66.468C421.667 67.241 420.171 67.654 418.641 67.6536C417.66 67.7049 416.677 67.575 415.754 67.272C414.83 66.9689 413.985 66.4989 413.271 65.8911C412.556 65.2833 411.987 64.5503 411.599 63.7373C411.211 62.9244 411.012 62.0485 411.013 61.1636ZM422.996 61.1636C422.971 60.3988 422.696 59.6578 422.205 59.0329C421.714 58.4081 421.03 57.9272 420.238 57.6503C419.445 57.3735 418.58 57.3128 417.75 57.476C416.919 57.6392 416.16 58.019 415.568 58.5679C414.976 59.1169 414.577 59.8107 414.42 60.5627C414.264 61.3147 414.357 62.0915 414.687 62.7963C415.018 63.5011 415.573 64.1025 416.281 64.5254C416.989 64.9483 417.82 65.1741 418.67 65.1744C419.252 65.1839 419.83 65.0857 420.369 64.886C420.907 64.6863 421.394 64.3892 421.799 64.0132C422.205 63.6372 422.52 63.1903 422.726 62.7002C422.932 62.21 423.024 61.687 422.996 61.1636Z" fill="white"/>
<path opacity="0.6" d="M437.575 67.4329L434.879 63.9413H431.908V67.4329H428.692V54.8813H434.72C438.44 54.8813 440.776 56.6206 440.776 59.4373C440.798 60.2744 440.533 61.0973 440.017 61.794C439.501 62.4907 438.759 63.0275 437.892 63.3312L441.021 67.368L437.575 67.4329ZM434.547 57.2566H431.908V61.6309H434.547C436.508 61.6309 437.503 60.8001 437.503 59.4373C437.503 58.0744 436.508 57.2566 434.547 57.2566Z" fill="white"/>
</g>
<path d="M432.082 340.74C478.734 340.74 516.554 337.863 516.554 334.315C516.554 330.766 478.734 327.89 432.082 327.89C385.429 327.89 347.609 330.766 347.609 334.315C347.609 337.863 385.429 340.74 432.082 340.74Z" fill="#263238"/>
<path d="M324.551 325.54L304.594 236.069H296.951L276.98 325.54L262.314 333.627V336.015H338.74V333.627L324.551 325.54Z" fill="#293E6F"/>
<path opacity="0.2" d="M338.74 333.627H262.314V336.638H338.74V333.627Z" fill="white"/>
<path opacity="0.2" d="M304.594 236.069H296.951L276.749 325.281H324.306L304.594 236.069Z" fill="white"/>
<path opacity="0.6" d="M317.918 296.322L313.376 275.788H287.954L283.296 296.322H317.918Z" fill="white"/>
<path d="M73.7012 326.929L82.9588 331.732L96.0666 312.82L86.7945 308.03L73.7012 326.929Z" fill="#FFB573"/>
<path opacity="0.2" d="M86.7942 308.03L96.0519 312.833L89.2889 322.581L80.0312 317.778L86.7942 308.03Z" fill="black"/>
<path d="M85.6698 325.696H72.6918C72.4795 325.697 72.274 325.764 72.1089 325.884C71.9439 326.004 71.8291 326.171 71.7834 326.358L69.6781 334.912C69.5966 335.281 69.6793 335.665 69.9084 335.981C70.1375 336.296 70.4949 336.518 70.9038 336.599H71.2498C75.4461 336.534 78.4598 336.314 83.7664 336.314C87.0109 336.314 96.7444 336.612 101.287 336.612C105.829 336.612 106.363 332.627 104.531 332.264C96.2974 330.641 90.1112 328.37 87.4579 326.28C86.9686 325.884 86.3274 325.675 85.6698 325.696Z" fill="#263238"/>
<path d="M86.3624 327.033C86.3134 327.021 86.2695 326.996 86.2362 326.961C86.2028 326.926 86.1816 326.884 86.1749 326.838C86.1659 326.795 86.1721 326.751 86.1929 326.711C86.2136 326.671 86.2477 326.639 86.2903 326.618C86.6796 326.397 90.126 324.489 91.3085 325.034C91.4409 325.091 91.5521 325.182 91.6288 325.295C91.7056 325.407 91.7445 325.538 91.7411 325.67C91.7805 325.898 91.7518 326.131 91.658 326.345C91.5643 326.56 91.4088 326.748 91.2075 326.89C90.6085 327.262 89.8852 327.436 89.1599 327.383C88.216 327.359 87.278 327.241 86.3624 327.033ZM87.0978 326.708C88.3447 327.089 89.7054 327.028 90.9047 326.54C91.0267 326.436 91.1202 326.308 91.1777 326.166C91.2353 326.024 91.2554 325.872 91.2364 325.722C91.2364 325.54 91.1354 325.449 91.0777 325.449C90.969 325.424 90.8549 325.424 90.7461 325.449C89.4679 325.664 88.2453 326.091 87.1411 326.708H87.0978Z" fill="#293E6F"/>
<path d="M86.3619 327.072C86.3242 327.049 86.2937 327.018 86.2735 326.982C86.2533 326.945 86.244 326.905 86.2465 326.864C86.2465 326.734 86.5205 323.97 87.6885 323.061C87.8382 322.95 88.0112 322.868 88.197 322.819C88.3828 322.77 88.5777 322.755 88.77 322.775C88.9607 322.775 89.1455 322.835 89.2928 322.944C89.4401 323.052 89.5408 323.204 89.5775 323.372C89.7938 324.385 87.6597 326.501 86.5637 327.046H86.4484L86.3619 327.072ZM88.0779 323.334C87.3276 324.199 86.8853 325.249 86.8089 326.345C87.9192 325.592 89.2747 323.996 89.1305 323.372C89.1305 323.308 89.1305 323.139 88.77 323.139H88.6402C88.4237 323.138 88.214 323.207 88.049 323.334H88.0779Z" fill="#293E6F"/>
<path d="M223.049 329.162L234.052 328.019L230.879 306.732L219.862 307.874L223.049 329.162Z" fill="#FFB573"/>
<path opacity="0.2" d="M219.862 307.874L230.879 306.732L232.509 317.713L221.506 318.855L219.862 307.874Z" fill="black"/>
<path d="M234.297 325.696H221.319C221.106 325.695 220.899 325.76 220.733 325.881C220.568 326.002 220.454 326.17 220.41 326.358L218.305 334.912C218.261 335.094 218.257 335.283 218.294 335.467C218.331 335.65 218.408 335.826 218.52 335.983C218.633 336.139 218.779 336.275 218.95 336.381C219.121 336.486 219.313 336.561 219.516 336.599H219.862C224.059 336.534 227.072 336.314 232.393 336.314C235.638 336.314 245.371 336.612 249.914 336.612C254.456 336.612 254.975 332.627 253.144 332.264C244.91 330.641 238.724 328.37 236.085 326.28C235.592 325.889 234.953 325.68 234.297 325.696Z" fill="#263238"/>
<path d="M235.017 327.033C234.968 327.021 234.924 326.996 234.891 326.961C234.858 326.926 234.837 326.884 234.83 326.838C234.819 326.794 234.827 326.747 234.85 326.707C234.874 326.666 234.913 326.635 234.96 326.618C235.335 326.397 238.781 324.489 239.963 325.034C240.097 325.09 240.209 325.18 240.286 325.293C240.363 325.407 240.401 325.538 240.396 325.67C240.437 325.897 240.411 326.129 240.319 326.343C240.228 326.558 240.076 326.746 239.877 326.89C239.273 327.264 238.545 327.438 237.815 327.383C236.871 327.357 235.933 327.239 235.017 327.033ZM235.753 326.708C237 327.089 238.36 327.028 239.56 326.54C239.686 326.439 239.784 326.311 239.844 326.169C239.904 326.027 239.925 325.873 239.906 325.722C239.906 325.54 239.805 325.449 239.733 325.449C239.629 325.424 239.519 325.424 239.415 325.449C238.117 325.657 236.874 326.084 235.753 326.708Z" fill="#293E6F"/>
<path d="M234.96 327.072C234.919 327.052 234.885 327.022 234.862 326.985C234.839 326.948 234.828 326.906 234.83 326.864C234.83 326.734 235.104 323.97 236.272 323.061C236.418 322.948 236.588 322.864 236.772 322.815C236.956 322.766 237.149 322.752 237.34 322.775C237.532 322.775 237.719 322.834 237.868 322.942C238.018 323.051 238.122 323.203 238.162 323.373C238.378 324.385 236.244 326.501 235.148 327.046H235.018L234.96 327.072ZM236.662 323.334C235.916 324.201 235.479 325.25 235.407 326.345C236.503 325.592 237.859 323.996 237.729 323.373C237.729 323.308 237.729 323.139 237.354 323.139H237.239C237.027 323.142 236.824 323.211 236.662 323.334Z" fill="#293E6F"/>
<path d="M233.908 313.326L215.421 309.354C215.421 309.354 202.025 222.025 170.518 182.449C166.827 177.632 162.361 173.336 157.266 169.702C155.304 191.639 152.94 214.977 150.993 227.398C146.061 257.966 98.2877 316.857 98.2877 316.857L81.5605 310.535C81.5605 310.535 119.961 246.544 121.807 216.495C123.826 183.877 124.691 126.661 124.777 119.963H181.534C186.841 146.429 227.361 206.994 233.908 313.326Z" fill="#263238"/>
<path opacity="0.3" d="M233.908 313.326L215.421 309.354C215.421 309.354 202.025 222.025 170.518 182.449C166.827 177.632 162.361 173.336 157.266 169.702C155.304 191.639 152.94 214.977 150.993 227.398C146.061 257.966 98.2877 316.857 98.2877 316.857L81.5605 310.535C81.5605 310.535 119.961 246.544 121.807 216.495C123.826 183.877 124.691 126.661 124.777 119.963H181.534C186.841 146.429 227.361 206.994 233.908 313.326Z" fill="white"/>
<path d="M215.623 63.6427C215.537 79.2966 214.844 94.9375 213.95 110.565L213.821 109.267C215.046 116.264 216.128 123.286 217.152 130.308C218.175 137.33 219.026 144.404 219.675 151.491L212.22 152.789C207.62 139.212 203.813 125.441 200.251 111.63C199.66 95.5735 199.862 79.4654 200.251 63.3961L215.565 63.6427H215.623Z" fill="#FFB573"/>
<path d="M214.513 59.5671C219.17 62.1631 213.748 89.5509 214.873 110.098C215.077 112.16 215.438 114.207 215.955 116.225L200.28 117.808C199.306 114.527 198.564 111.193 198.059 107.827C197.295 98.2475 198.059 71.1582 198.059 71.1582L214.513 59.5671Z" fill="#293E6F"/>
<path opacity="0.7" d="M214.873 110.098C215.077 112.16 215.438 114.207 215.955 116.225L200.28 117.808C199.313 114.526 198.576 111.192 198.074 107.827C197.872 105.36 197.771 101.726 197.742 97.7023C197.742 91.6276 197.742 84.6444 197.886 79.3745C197.973 74.5589 198.074 71.1712 198.074 71.1712L214.527 59.58C219.156 62.176 213.748 89.5508 214.873 110.098Z" fill="white"/>
<path d="M219.445 149.635L222.43 162.823L209.365 163.303C209.365 163.303 205.847 154.347 212.436 149.22L219.445 149.635Z" fill="#FFB573"/>
<path d="M219.415 172.013L209.581 170.273L209.364 163.303L222.429 162.823L219.415 172.013Z" fill="#FFB573"/>
<path d="M198.91 115.446L215.955 113.019L216.43 117.25L200.049 118.795L198.91 115.446Z" fill="#293E6F"/>
<path opacity="0.6" d="M198.91 115.446L215.955 113.019L216.43 117.25L200.049 118.795L198.91 115.446Z" fill="white"/>
<path opacity="0.1" d="M197.728 97.7023C197.728 91.6276 197.728 84.6444 197.872 79.3745C199.073 76.9115 200.726 74.6475 202.76 72.6768C204.35 81.2915 202.572 90.136 197.728 97.7023Z" fill="black"/>
<path d="M236.301 316.221L212.552 313.04L213.287 307.122L237.989 310.042L236.301 316.221Z" fill="#263238"/>
<path d="M99.6432 320.543L78.2295 312.885L80.7818 307.122L103.162 314.702L99.6432 320.543Z" fill="#263238"/>
<path opacity="0.3" d="M170.518 182.423C166.827 177.606 162.361 173.31 157.266 169.676L158.837 151.504C158.837 151.504 168.657 166.016 170.518 182.423Z" fill="black"/>
<path d="M214.512 59.5671C193.142 91.4849 183.653 130.594 183.653 130.594L173.213 146.728L166.003 128.556L164.23 128.322L161.634 127.972L158.981 127.608L153.53 126.829L150.776 126.414C149.853 126.284 148.944 126.142 148.021 125.986L145.296 125.544L142.6 125.09C140.134 124.662 137.726 124.22 135.39 123.792L134.178 123.545C132.506 123.195 130.905 122.845 129.42 122.481C127.934 122.118 126.536 121.754 125.368 121.391L124.474 121.118C126.507 108.131 129.946 95.3546 134.741 82.97C135.462 81.1139 136.183 79.3356 136.947 77.6092C139.733 71.12 143.009 64.81 146.753 58.7234L146.983 58.3469C153.616 47.6514 167.056 42.9916 175.131 44.8347C182.764 46.8389 190.265 49.231 197.597 51.9997C203.409 54.1947 209.059 56.7223 214.512 59.5671Z" fill="#293E6F"/>
<path opacity="0.7" d="M214.512 59.5671C193.142 91.4849 183.653 130.594 183.653 130.594L173.213 146.728L166.003 128.556L164.23 128.322L161.634 127.972L158.981 127.608L153.53 126.829L150.776 126.414C149.853 126.284 148.944 126.142 148.021 125.986L145.296 125.544L142.6 125.09C140.134 124.662 137.726 124.22 135.39 123.792L134.178 123.545C132.506 123.195 130.905 122.845 129.42 122.481C127.934 122.118 126.536 121.767 125.368 121.391L124.474 121.118C126.507 108.131 129.946 95.3546 134.741 82.97C135.462 81.1139 136.183 79.3356 136.947 77.6092C139.733 71.12 143.009 64.81 146.753 58.7234L146.983 58.3469C153.616 47.6514 167.056 42.9916 175.131 44.8347C182.764 46.8389 190.265 49.231 197.597 51.9997C203.409 54.1947 209.059 56.7223 214.512 59.5671Z" fill="white"/>
<path opacity="0.1" d="M180.221 81.8667C180.221 81.8667 179.616 84.7742 178.88 88.8759C177.936 93.4087 176.487 97.8444 174.554 102.116C173.401 104.231 168.657 112.668 169.565 116.394C170.474 120.119 166.018 128.465 166.018 128.465L164.244 128.231C165.34 123.623 169.017 108.761 171.007 106.983C173.358 104.932 177.02 95.8592 176.256 92.4454C175.492 89.0317 180.221 81.8667 180.221 81.8667Z" fill="black"/>
<path d="M164.605 149.635L167.604 162.823L154.54 163.303C154.54 163.303 151.007 154.347 157.597 149.22L164.605 149.635Z" fill="#FFB573"/>
<path d="M164.591 172.013L154.756 170.273L154.54 163.303L167.605 162.823L164.591 172.013Z" fill="#FFB573"/>
<path d="M172.882 45.4059C174.324 49.0792 185.86 62.2799 185.86 62.2799L195.954 51.8959C195.197 51.3061 194.57 50.5926 194.108 49.7931C193.608 48.9559 193.381 48.0087 193.452 47.0604C193.523 46.112 193.891 45.2011 194.512 44.4324C195.042 43.8105 195.663 43.256 196.358 42.7839C196.47 42.7132 196.576 42.6351 196.675 42.5503L191.628 25.5205C188.484 32.1014 180.337 44.3285 172.882 45.4059Z" fill="#FFB573"/>
<path opacity="0.2" d="M194.166 49.832C193.666 48.9949 193.439 48.0477 193.51 47.0993C193.582 46.151 193.949 45.24 194.57 44.4713C195.1 43.8495 195.721 43.295 196.416 42.8229L188.874 30.9332C184.13 40.3696 190.186 46.9635 194.166 49.832Z" fill="black"/>
<path d="M212.768 11.1646C212.768 11.1646 216.863 24.0408 209.884 29.9986C202.905 35.9564 199.357 11.4891 199.357 11.4891L212.768 11.1646Z" fill="#FFB573"/>
<path opacity="0.4" d="M212.768 11.1646C212.768 11.1646 216.863 24.0408 209.884 29.9986C202.905 35.9564 199.357 11.4891 199.357 11.4891L212.768 11.1646Z" fill="black"/>
<path d="M188.859 43.0436C190.789 45.0198 193.388 46.37 196.254 46.886C199.12 47.402 202.096 47.0553 204.721 45.8992C208.158 44.4694 210.856 41.9105 212.263 38.7472C212.461 38.3228 212.634 37.8895 212.782 37.4492C215.45 28.9732 214.037 9.00999 204.462 10.6325C196.617 11.9305 188.6 10.4508 185.269 16.9667C184.295 18.8217 183.835 20.8615 183.928 22.9116C184.101 32.387 183.726 37.9943 188.859 43.0436Z" fill="#FFB573"/>
<path d="M206.466 26.7536C207.378 29.1609 208.659 31.4416 210.273 33.5292C209.664 33.8872 208.976 34.1214 208.256 34.2156C207.536 34.3097 206.802 34.2615 206.105 34.0743L206.466 26.7536Z" fill="#ED893E"/>
<path d="M202.977 19.978C202.886 19.9615 202.792 19.966 202.704 19.991C202.616 20.0159 202.536 20.0606 202.472 20.1208C202.066 20.5606 201.55 20.9076 200.966 21.1332C200.382 21.3588 199.746 21.4567 199.112 21.4188C198.981 21.404 198.848 21.4366 198.742 21.5095C198.637 21.5824 198.568 21.6897 198.55 21.8082C198.54 21.8662 198.543 21.9255 198.558 21.9826C198.574 22.0396 198.602 22.0933 198.641 22.1405C198.68 22.1876 198.729 22.2273 198.785 22.2572C198.841 22.287 198.903 22.3065 198.968 22.3144C199.766 22.3762 200.569 22.2647 201.309 21.9891C202.05 21.7135 202.706 21.282 203.222 20.7309C203.315 20.6459 203.366 20.5318 203.366 20.4129C203.366 20.2939 203.315 20.1798 203.222 20.0948L202.977 19.978Z" fill="#263238"/>
<path d="M209.35 19.4199C209.252 19.3871 209.145 19.3871 209.047 19.4199C208.935 19.484 208.855 19.5854 208.825 19.702C208.796 19.8187 208.818 19.9412 208.888 20.0429C209.306 20.6614 209.883 21.1802 210.571 21.5553C211.259 21.9303 212.037 22.1507 212.839 22.1976C212.906 22.1993 212.972 22.1893 213.034 22.168C213.096 22.1468 213.152 22.1148 213.2 22.0738C213.249 22.0328 213.287 21.9837 213.315 21.9292C213.342 21.8747 213.357 21.8159 213.358 21.7563C213.355 21.6355 213.301 21.5204 213.208 21.4338C213.114 21.3472 212.988 21.2955 212.854 21.289C212.222 21.2378 211.612 21.0538 211.074 20.7517C210.535 20.4496 210.083 20.0379 209.753 19.5497C209.701 19.5019 209.638 19.4654 209.568 19.4429C209.498 19.4205 209.424 19.4126 209.35 19.4199Z" fill="#263238"/>
<path d="M185.86 29.4924C184.851 29.752 184.793 33.8147 185.86 37.501L184.072 37.9554C182.071 35.3989 180.605 32.5354 179.746 29.5054C177.482 21.7952 177.165 16.798 177.987 12.9429L192.191 11.2944L192.782 15.487C192.014 15.8323 191.414 16.4205 191.097 17.1389C190.781 17.8573 190.77 18.6556 191.066 19.381C192.609 22.8985 190.417 28.3891 187.432 30.5957C187.461 30.6476 187.302 29.0641 185.86 29.4924Z" fill="#FFB573"/>
<path opacity="0.4" d="M185.86 29.4924C184.851 29.752 184.793 33.8147 185.86 37.501L184.072 37.9554C182.071 35.3989 180.605 32.5354 179.746 29.5054C177.482 21.7952 177.165 16.798 177.987 12.9429L192.191 11.2944L192.782 15.487C192.014 15.8323 191.414 16.4205 191.097 17.1389C190.781 17.8573 190.77 18.6556 191.066 19.381C192.609 22.8985 190.417 28.3891 187.432 30.5957C187.461 30.6476 187.302 29.0641 185.86 29.4924Z" fill="black"/>
<path d="M178.953 30.5048C180.029 32.6982 182.024 34.4198 184.505 35.2944C187.807 36.4237 189.782 33.8407 189.133 30.8812C188.542 28.2852 186.134 24.3912 182.688 24.5859C181.937 24.624 181.208 24.8309 180.569 25.1879C179.93 25.5448 179.4 26.0404 179.028 26.6292C178.657 27.218 178.455 27.8813 178.442 28.5584C178.429 29.2354 178.605 29.9047 178.953 30.5048Z" fill="#FFB573"/>
<path d="M180.827 9.1138C180.827 9.1138 179.111 6.4399 182.86 3.2598C186.61 0.0797052 202.327 -1.21829 207.028 1.40367C211.729 4.02563 215.579 2.09161 215.334 0.365271C215.795 0.877759 216.068 1.50658 216.114 2.1647C216.161 2.82281 215.979 3.47768 215.594 4.03861C215.594 4.03861 218.608 3.89583 220.078 7.93261C219.527 7.84773 218.961 7.87476 218.422 8.01174C217.883 8.14871 217.385 8.39218 216.964 8.72439C217.512 9.23032 217.913 9.85097 218.129 10.5306C218.346 11.2103 218.371 11.9276 218.204 12.6184C217.285 11.7756 216.074 11.2399 214.772 11.0997C215.166 12.1034 215.757 13.0353 216.517 13.8515C216.517 13.8515 210.287 14.4745 207.057 12.3458C207.689 13.3113 208.533 14.1505 209.537 14.812C209.537 14.812 199.443 16.4994 196.069 12.891C195.559 13.5231 195.206 14.2468 195.034 15.0129C194.862 15.7789 194.876 16.5693 195.074 17.3301C194.223 17.353 193.377 17.2146 192.589 16.9239C191.802 16.6332 191.091 16.1967 190.503 15.6427C188.06 17.4504 185.082 18.5741 181.938 18.8747C182.489 18.3313 182.973 17.7349 183.38 17.0965C183.38 17.0965 178.188 19.8353 174.728 17.7585C175.179 17.0927 175.474 16.3504 175.593 15.5778L174.237 16.1879C174.237 16.1879 174.18 9.3734 180.827 9.1138Z" fill="#263238"/>
<path d="M199.329 29.6741C199.008 29.7585 198.68 29.8192 198.348 29.8559C198.282 29.8596 198.216 29.84 198.165 29.8014C198.114 29.7627 198.081 29.7079 198.074 29.6482C198.07 29.6192 198.073 29.5897 198.081 29.5616C198.09 29.5334 198.105 29.5071 198.125 29.4841C198.145 29.4612 198.17 29.4421 198.199 29.4279C198.227 29.4137 198.258 29.4048 198.29 29.4016C199.126 29.3992 199.938 29.1523 200.604 28.698C201.27 28.2438 201.754 27.6069 201.982 26.8834C201.985 26.8531 201.996 26.8237 202.012 26.7972C202.029 26.7706 202.052 26.7475 202.079 26.7292C202.106 26.7109 202.137 26.6979 202.17 26.6909C202.203 26.6839 202.237 26.6832 202.27 26.6887C202.303 26.6934 202.334 26.7039 202.362 26.7196C202.389 26.7353 202.414 26.7559 202.432 26.7801C202.451 26.8043 202.464 26.8316 202.471 26.8605C202.478 26.8895 202.478 26.9193 202.472 26.9483C202.279 27.6199 201.884 28.2301 201.329 28.7113C200.774 29.1925 200.081 29.5258 199.329 29.6741Z" fill="#ED893E"/>
<path d="M211.816 29.5962C209.999 29.3886 209.177 27.2079 209.134 27.117C209.122 27.089 209.118 27.0591 209.12 27.0293C209.122 26.9995 209.13 26.9704 209.145 26.9437C209.16 26.917 209.181 26.8933 209.206 26.874C209.231 26.8547 209.261 26.8403 209.292 26.8315C209.357 26.814 209.427 26.819 209.489 26.8454C209.55 26.8717 209.598 26.9177 209.624 26.9743C209.624 26.9743 210.374 28.9732 211.873 29.1419C211.937 29.1515 211.994 29.182 212.034 29.2276C212.074 29.2732 212.094 29.3306 212.09 29.3886C212.088 29.4187 212.079 29.4483 212.064 29.4754C212.049 29.5024 212.028 29.5265 212.003 29.5459C211.977 29.5654 211.947 29.5799 211.915 29.5886C211.883 29.5972 211.849 29.5998 211.816 29.5962Z" fill="#ED893E"/>
<path d="M199.848 26.1176C199.747 26.8834 200.222 27.5324 200.799 27.5584C201.376 27.5844 201.838 26.9613 201.881 26.1955C201.924 25.4297 201.477 24.7677 200.929 24.7547C200.381 24.7417 199.876 25.3388 199.848 26.1176Z" fill="#263238"/>
<path d="M209.567 26.4681C209.48 27.2339 209.97 27.8829 210.533 27.9088C211.095 27.9348 211.571 27.3118 211.614 26.533C211.657 25.7542 211.21 25.1182 210.648 25.1052C210.086 25.0922 209.61 25.7412 209.567 26.4681Z" fill="#263238"/>
<path d="M198.939 26.1565C200.161 26.2026 201.377 25.9845 202.486 25.5205C203.524 24.8196 201.606 24.1317 200.669 24.1317C199.732 24.1317 198.304 25.4816 198.939 26.1565Z" fill="#FFB573"/>
<path d="M209.091 26.0008C210.228 26.3951 211.456 26.5333 212.667 26.4032C213.907 26.0397 212.335 24.8456 211.441 24.573C210.547 24.3004 208.73 25.1701 209.091 26.0008Z" fill="#FFB573"/>
<path d="M206.885 40.136C206.885 40.136 205.616 40.6033 204.001 41.0835C201.117 41.9532 196.949 42.8618 196.704 41.2782C196.666 41.0635 196.679 40.8439 196.741 40.6338C196.803 40.4237 196.913 40.2276 197.064 40.0581C198.305 38.5265 202.443 37.9683 205.183 37.7087C205.241 38.1312 205.373 38.5429 205.572 38.9289C205.883 39.4288 206.336 39.8454 206.885 40.136Z" fill="#263238"/>
<path d="M203.986 41.0835C201.102 41.9532 196.934 42.8618 196.689 41.2782C196.651 41.0635 196.664 40.8439 196.726 40.6338C196.788 40.4237 196.898 40.2276 197.05 40.0581C199.501 39.9024 202.832 39.9283 203.986 41.0835Z" fill="#A02724"/>
<path d="M193.56 24.1317C193.56 24.1317 195.002 27.5584 193.56 27.5584C192.118 27.5584 193.56 24.1317 193.56 24.1317Z" fill="white"/>
<path d="M191.109 27.0911C191.109 27.0911 192.551 30.5178 191.109 30.5178C189.667 30.5178 191.109 27.0911 191.109 27.0911Z" fill="white"/>
<path d="M210.662 16.084C210.662 16.084 212.955 19.1343 211.499 19.4199C210.042 19.7055 210.662 16.084 210.662 16.084Z" fill="white"/>
<path d="M212.162 32.5427C212.162 32.5427 213.488 36.0343 211.989 35.9694C210.489 35.9045 212.162 32.5427 212.162 32.5427Z" fill="white"/>
<path d="M170.936 42.8358C170.936 42.8358 178.146 62.3058 182.572 69.7044L183.524 68.7958C183.524 68.7958 175.536 48.3134 174.31 42.8358H170.936Z" fill="#293E6F"/>
<path d="M193.618 52.2853C193.27 58.4233 191.292 64.3967 187.85 69.7044V71.1582C187.85 71.1582 193.618 66.7969 195.319 53.8299L193.618 52.2853Z" fill="#293E6F"/>
<path d="M181.837 69.3021L183.279 67.0306C185.875 70.016 188.081 68.4065 188.081 68.4065L189.032 70.2237L186.523 76.467H183.928L181.837 69.3021Z" fill="#293E6F"/>
<path d="M186.365 73.3388C186.365 73.3388 185.384 94.3924 186.365 106.594C186.985 114.382 187.648 128.413 187.216 132.138L183.308 134.838L180.236 130.594C180.236 130.594 182.659 124.817 181.52 110.189C180.381 95.5606 184.548 73.845 184.548 73.845L186.365 73.3388Z" fill="#293E6F"/>
<path d="M166.076 44.004L173.863 40.2917L184.491 49.1701L184.995 60.6963L192.58 51.3377L197.223 49.209L200.583 54.2842L196.344 60.3848L193.618 57.2307L184.505 64.2009L177.785 54.5828L173.272 56.7893L166.076 44.004Z" fill="#293E6F"/>
<path opacity="0.6" d="M166.076 44.004L173.863 40.2917L184.491 49.1701L184.995 60.6963L192.58 51.3377L197.223 49.209L200.583 54.2842L196.344 60.3848L193.618 57.2307L184.505 64.2009L177.785 54.5828L173.272 56.7893L166.076 44.004Z" fill="white"/>
<path opacity="0.1" d="M184.505 64.201L192.825 54.6087L196.344 60.3848L193.618 57.2307L184.505 64.201Z" fill="black"/>
<path opacity="0.1" d="M184.505 64.2009L180.712 51.805L173.271 56.7893L177.785 54.5827L184.505 64.2009Z" fill="black"/>
<path opacity="0.1" d="M161.115 119.924L147.849 121.222C147.849 121.222 133.66 101.843 134.756 82.8921C135.477 81.036 136.198 79.2577 136.962 77.5314C139.748 71.0421 143.024 64.7321 146.768 58.6455C147.81 57.7634 148.94 56.9684 150.142 56.2701L163.855 74.6758C163.855 74.6758 164.735 104.673 161.115 119.924Z" fill="black"/>
<path d="M160.783 63.6427C160.697 79.2966 160.019 94.9375 159.111 110.565L158.995 109.267C160.207 116.259 161.312 123.273 162.312 130.308C163.307 137.356 164.201 144.404 164.835 151.491L157.395 152.789C152.78 139.212 148.974 125.441 145.426 111.63C144.835 95.5735 145.037 79.4654 145.426 63.3961L160.726 63.6427H160.783Z" fill="#FFB573"/>
<path d="M154.511 53.2717C161.923 56.1792 164.172 66.9916 164.172 66.9916C164.172 66.9916 160.409 108.385 160.596 110.098C160.784 111.812 161.115 115.07 161.115 115.07L145.253 117.808C145.253 117.808 143.927 110.098 143.162 94.3534C142.398 78.6087 143.162 65.4859 146.767 59.6839C150.372 53.8818 154.511 53.2717 154.511 53.2717Z" fill="#293E6F"/>
<path opacity="0.7" d="M154.511 53.2717C161.923 56.1792 164.172 66.9916 164.172 66.9916C164.172 66.9916 160.409 108.385 160.596 110.098C160.784 111.812 161.115 115.07 161.115 115.07L145.253 117.808C145.253 117.808 143.927 110.098 143.162 94.3534C142.398 78.6087 143.162 65.4859 146.767 59.6839C150.372 53.8818 154.511 53.2717 154.511 53.2717Z" fill="white"/>
<path d="M142.831 115.407L162.312 112.5L161.116 116.952L145.008 119.937L142.831 115.407Z" fill="#293E6F"/>
<path opacity="0.6" d="M142.831 115.407L162.312 112.5L161.116 116.952L145.008 119.937L142.831 115.407Z" fill="white"/>
<path d="M248.342 179.931L245.184 221.168C245.1 221.839 244.73 222.453 244.151 222.882C243.572 223.311 242.831 223.52 242.084 223.466L182.846 220.532C182.107 220.499 181.41 220.211 180.9 219.727C180.39 219.244 180.106 218.603 180.106 217.936L183.264 176.712C183.348 176.041 183.719 175.426 184.297 174.997C184.876 174.568 185.618 174.359 186.365 174.414L245.617 177.348C245.984 177.356 246.346 177.429 246.682 177.564C247.018 177.698 247.321 177.891 247.574 178.131C247.827 178.371 248.025 178.653 248.157 178.962C248.289 179.271 248.352 179.6 248.342 179.931Z" fill="#263238"/>
<path d="M217.584 215.496L244.218 211.199C244.218 211.199 257.7 234.563 265.617 240.924L236.042 250.762C236.042 250.762 222.04 235.628 217.584 215.496Z" fill="#293E6F"/>
<path opacity="0.7" d="M217.584 215.496L244.218 211.199C244.218 211.199 257.7 234.563 265.617 240.924L236.042 250.762C236.042 250.762 222.04 235.628 217.584 215.496Z" fill="white"/>
<path d="M216.906 193.014C221.896 195.701 236.734 217.144 236.734 217.144L267.823 201.698C267.823 201.698 251.961 188.303 247.001 186.628C242.04 184.954 216.906 193.014 216.906 193.014Z" fill="#293E6F"/>
<path opacity="0.6" d="M216.474 193.014C221.549 195.701 236.662 217.144 236.662 217.144L268.241 201.698C268.241 201.698 252.192 188.264 247.073 186.589C241.954 184.915 216.474 193.014 216.474 193.014Z" fill="white"/>
<path d="M197.713 185.811C197.713 185.811 203.567 197.986 204.923 209.175L245.818 202.685C245.818 202.685 239.762 188.277 237.166 185.811C234.57 183.344 197.713 185.811 197.713 185.811Z" fill="#293E6F"/>
<path opacity="0.7" d="M197.713 185.811C197.713 185.811 203.567 197.986 204.923 209.175L245.818 202.685C245.818 202.685 239.762 188.277 237.166 185.811C234.57 183.344 197.713 185.811 197.713 185.811Z" fill="white"/>
<path d="M229.682 177.893C228.096 171.571 219.588 166.211 212.883 165.263C208.009 164.601 204 173.207 202.789 176.569L201.102 176.114C201.289 175.569 205.716 162.706 213.07 163.693C220.424 164.679 229.567 170.507 231.326 177.542L229.682 177.893Z" fill="#263238"/>
<path d="M188.384 174.518C189.155 174.6 189.879 174.893 190.459 175.357C191.039 175.821 191.447 176.434 191.628 177.114L195.594 195.792C195.752 196.343 196.1 196.835 196.586 197.198C197.073 197.562 197.674 197.778 198.305 197.817L251.659 200.413C251.926 200.457 252.202 200.44 252.461 200.366C252.72 200.291 252.954 200.16 253.144 199.984C253.333 199.808 253.472 199.593 253.547 199.358C253.623 199.123 253.633 198.874 253.576 198.635L249.596 179.892C249.394 179.205 248.959 178.592 248.352 178.138C247.745 177.684 246.995 177.413 246.208 177.361L187.014 174.44L188.384 174.518Z" fill="#263238"/>
<path opacity="0.1" d="M188.384 174.518C189.155 174.6 189.879 174.893 190.459 175.357C191.039 175.821 191.447 176.434 191.628 177.114L195.594 195.792C195.752 196.343 196.1 196.835 196.586 197.198C197.073 197.562 197.674 197.778 198.305 197.817L251.659 200.413C251.926 200.457 252.202 200.44 252.461 200.366C252.72 200.291 252.954 200.16 253.144 199.984C253.333 199.808 253.472 199.593 253.547 199.358C253.623 199.123 253.633 198.874 253.576 198.635L249.596 179.892C249.394 179.205 248.959 178.592 248.352 178.138C247.745 177.684 246.995 177.413 246.208 177.361L187.014 174.44L188.384 174.518Z" fill="white"/>
<path d="M231.226 204.177H231.153L227.188 203.97C226.833 203.933 226.499 203.802 226.227 203.594C225.954 203.386 225.757 203.11 225.659 202.801L225.01 200.543C224.958 200.391 224.948 200.23 224.981 200.074C225.013 199.918 225.088 199.771 225.198 199.647C225.301 199.534 225.435 199.446 225.586 199.391C225.737 199.337 225.901 199.318 226.063 199.336L230.029 199.543C230.382 199.577 230.716 199.705 230.989 199.911C231.261 200.117 231.459 200.391 231.557 200.699L232.206 202.97C232.258 203.12 232.269 203.279 232.236 203.433C232.203 203.587 232.129 203.731 232.019 203.853C231.922 203.957 231.801 204.041 231.664 204.097C231.526 204.153 231.376 204.181 231.226 204.177ZM231.226 203.58C231.284 203.587 231.343 203.582 231.398 203.564C231.454 203.546 231.503 203.516 231.543 203.476C231.573 203.42 231.589 203.358 231.589 203.295C231.589 203.232 231.573 203.169 231.543 203.113L230.894 200.854C230.832 200.665 230.711 200.495 230.544 200.366C230.378 200.237 230.174 200.155 229.957 200.128L225.991 199.92C225.933 199.915 225.875 199.923 225.82 199.94C225.765 199.958 225.715 199.987 225.674 200.024C225.644 200.081 225.629 200.143 225.629 200.205C225.629 200.268 225.644 200.33 225.674 200.387L226.337 202.659C226.395 202.846 226.514 203.014 226.678 203.141C226.843 203.268 227.045 203.349 227.26 203.372L231.226 203.58Z" fill="#263238"/>
<g opacity="0.5">
<path opacity="0.5" d="M231.226 204.177H231.153L227.188 203.97C226.833 203.933 226.499 203.802 226.227 203.594C225.954 203.386 225.757 203.11 225.659 202.801L225.01 200.543C224.958 200.391 224.948 200.23 224.981 200.074C225.013 199.918 225.088 199.771 225.198 199.647C225.301 199.534 225.435 199.446 225.586 199.391C225.737 199.337 225.901 199.318 226.063 199.336L230.029 199.543C230.382 199.577 230.716 199.705 230.989 199.911C231.261 200.117 231.459 200.391 231.557 200.699L232.206 202.97C232.258 203.12 232.269 203.279 232.236 203.433C232.203 203.587 232.129 203.731 232.019 203.853C231.922 203.957 231.801 204.041 231.664 204.097C231.526 204.153 231.376 204.181 231.226 204.177ZM231.226 203.58C231.284 203.587 231.343 203.582 231.398 203.564C231.454 203.546 231.503 203.516 231.543 203.476C231.573 203.42 231.589 203.358 231.589 203.295C231.589 203.232 231.573 203.169 231.543 203.113L230.894 200.854C230.832 200.665 230.711 200.495 230.544 200.366C230.378 200.237 230.174 200.155 229.957 200.128L225.991 199.92C225.933 199.915 225.875 199.923 225.82 199.94C225.765 199.958 225.715 199.987 225.674 200.024C225.644 200.081 225.629 200.143 225.629 200.205C225.629 200.268 225.644 200.33 225.674 200.387L226.337 202.659C226.395 202.846 226.514 203.014 226.678 203.141C226.843 203.268 227.045 203.349 227.26 203.372L231.226 203.58Z" fill="white"/>
</g>
</svg>
